<?xml version='1.0' encoding='utf-8'?>
<svg xmlns="http://www.w3.org/2000/svg" version="1.1" width="1279px" height="960px" viewBox="-113 593 1279 960"> <g id="layer1"> <g style="fill:rgb(0,174,199); fill-opacity:1.0; stroke-linejoin: miter"> <path d="M-113.001,592.37274C-113.16706,592.37274,-113.326324,592.4388,-113.44375,592.5562C-113.56117,592.67365,-113.62714,592.8328,-113.62714,592.99896L-113.62614,1552.9999C-113.62614,1553.3456,-113.34581,1553.6259,-113.0,1553.6259L1166.0009,1553.6268C1166.1669,1553.6268,1166.3262,1553.5609,1166.4436,1553.4435C1166.561,1553.326,1166.627,1553.1669,1166.627,1553.0009L1166.626,592.99994C1166.626,592.6541,1166.3457,592.3737,1165.9999,592.3737L-113.001,592.37274 Z"/> </g> <g style="fill:rgb(255,0,0); fill-opacity:1.0; stroke-linejoin: miter"> <path d="M571.1634,980.39404L582.8835,986.4657Q589.1595,994.25354,586.50214,1001.25696Q584.4376,1006.989,583.2333,1008.6824Q570.43945,1029.1508,569.6115,1031.4877Q565.96747,1038.4312,565.3626,1044.583Q564.77045,1046.2542,566.7214,1053.0481L574.18964,1068.4471Q575.2035,1071.0819,575.5189,1073.934Q575.81616,1076.7863,575.1376,1079.9641L570.77576,1094.4344Q569.5537,1098.5361,568.8551,1103.2341Q567.1959,1112.5852,570.7749,1124.8597Q570.5325,1127.4661,581.0373,1145.1514Q590.95105,1159.9324,605.1558,1175.1263Q644.2447,1215.622,668.9981,1228.6493Q679.29047,1235.0779,699.6284,1238.9684Q675.47943,1218.759,666.315,1207.4915Q658.29486,1197.7618,658.408,1190.2379Q660.00305,1167.7057,704.56213,1171.0533Q672.2967,1153.7374,645.1114,1135.5396Q624.1896,1120.074,621.7362,1116.6803Q615.042,1110.2031,610.2294,1103.3993Q605.4353,1096.5894,602.82446,1089.4116L600.6674,1082.1865Q599.0098,1074.8915,598.8326,1067.5433L598.8958,1060.2389Q599.2644,1052.9495,600.3358,1045.9463L605.5502,1014.699Q607.01013,1006.0065,603.55225,993.49567Q600.74243,984.9441,591.3106,974.50366L571.1634,980.39404"/> </g> <g style="fill:rgb(48,78,74); fill-opacity:1.0; stroke-linejoin: miter"> <path d="M565.9154,1467.902C574.06555,1467.8177,580.53314,1460.7227,579.6348,1452.4169C578.8526,1445.1791,572.2833,1439.9384,565.00366,1440.014L465.84,1441.046C464.39282,1441.0598,463.20752,1439.8988,463.19247,1438.4518L463.19247,1438.4521C463.1775,1437.0046,464.33832,1435.8193,465.7855,1435.8043L564.7676,1434.7758C575.2744,1434.6666,584.52094,1442.6685,584.9454,1453.1669C585.38434,1464.0306,576.76434,1473.0326,565.9712,1473.1447L466.18445,1474.1823C464.7372,1474.1969,463.55188,1473.036,463.5369,1471.5887L463.53687,1471.5872C463.52182,1470.1404,464.6827,1468.9547,466.12994,1468.9397L565.9154,1467.903 Z"/> </g> <g style="fill:rgb(235,240,243); fill-opacity:1.0; stroke-linejoin: miter"> <path d="M579.6348,1452.4172C580.53326,1460.7227,574.06555,1467.8179,565.9154,1467.9023L466.62723,1468.9346C470.85822,1459.5913,470.7616,1450.2935,466.33728,1441.0399L565.0034,1440.0144C572.2838,1439.9388,578.8526,1445.1791,579.6348,1452.4172 Z"/> </g> <g style="fill:rgb(225,230,233); fill-opacity:1.0; stroke-linejoin: miter"> <path d="M571.00867,1446.3156L468.66016,1447.3799C468.563,1447.0114,468.43738,1446.6445,468.32706,1446.2776L570.9972,1445.2108L571.00867,1446.3156 Z"/> </g> <g style="fill:rgb(225,230,233); fill-opacity:1.0; stroke-linejoin: miter"> <path d="M571.051,1450.3829L469.48364,1451.4401C469.436,1451.0706,469.33945,1450.7028,469.27893,1450.3351L571.03955,1449.2781L571.051,1450.3829 Z"/> </g> <g style="fill:rgb(225,230,233); fill-opacity:1.0; stroke-linejoin: miter"> <path d="M571.09314,1454.4528L469.70172,1455.5071C469.70508,1455.1373,469.70126,1454.7689,469.69022,1454.401L571.08167,1453.3474L571.09314,1454.4528 Z"/> </g> <g style="fill:rgb(225,230,233); fill-opacity:1.0; stroke-linejoin: miter"> <path d="M571.1355,1458.5226L469.37503,1459.5801C469.4278,1459.2109,469.51678,1458.8411,469.55676,1458.4724L571.124,1457.4172L571.1355,1458.5226 Z"/> </g> <g style="fill:rgb(225,230,233); fill-opacity:1.0; stroke-linejoin: miter"> <path d="M571.17786,1462.5905L468.50745,1463.6573C468.6106,1463.287,468.7283,1462.9174,468.8178,1462.5486L571.1664,1461.485L571.17786,1462.5905 Z"/> </g> <g style="fill:rgb(136,70,54); fill-opacity:1.0; stroke-linejoin: miter"> <path d="M478.9009,1507.4325C470.75073,1507.5173,464.13733,1500.5574,464.86258,1492.2352C465.49432,1484.9823,471.95312,1479.6069,479.23264,1479.531L578.3964,1478.5011C579.8437,1478.4854,581.0047,1477.3002,580.9897,1475.8531L580.9897,1475.8535C580.97455,1474.406,579.78925,1473.2448,578.342,1473.2599L479.3598,1474.2892C468.85278,1474.3982,459.77515,1482.5903,459.5689,1493.0956C459.35605,1503.9663,468.16092,1512.787,478.95398,1512.6749L578.7409,1511.6376C580.1883,1511.6224,581.3492,1510.4374,581.33405,1508.99L581.33405,1508.9884C581.31903,1507.5413,580.13385,1506.3802,578.68646,1506.3954L478.90094,1507.433 Z"/> </g> <g style="fill:rgb(235,240,243); fill-opacity:1.0; stroke-linejoin: miter"> <path d="M464.86258,1492.2355C464.1371,1500.5574,470.75076,1507.5175,478.90094,1507.4326L578.18915,1506.4008C573.765,1497.147,573.6682,1487.849,577.89935,1478.5054L479.23288,1479.5316C471.9527,1479.6074,465.49432,1484.9823,464.86258,1492.2355 Z"/> </g> <g style="fill:rgb(225,230,233); fill-opacity:1.0; stroke-linejoin: miter"> <path d="M473.36017,1485.9564L575.7086,1484.8932C575.7981,1484.5222,575.916,1484.1525,576.01886,1483.7834L473.34872,1484.8513L473.36017,1485.9564 Z"/> </g> <g style="fill:rgb(225,230,233); fill-opacity:1.0; stroke-linejoin: miter"> <path d="M473.40247,1490.024L574.9697,1488.9677C575.00977,1488.5985,575.0985,1488.2286,575.15137,1487.8597L473.39096,1488.9185L473.40247,1490.024 Z"/> </g> <g style="fill:rgb(225,230,233); fill-opacity:1.0; stroke-linejoin: miter"> <path d="M473.44476,1494.0934L574.8362,1493.0397C574.8252,1492.6705,574.8213,1492.3016,574.8247,1491.9335L473.4333,1492.9884L473.44476,1494.0934 Z"/> </g> <g style="fill:rgb(225,230,233); fill-opacity:1.0; stroke-linejoin: miter"> <path d="M473.487,1498.1631L575.24744,1497.1064C575.18677,1496.7369,575.09045,1496.3689,575.0427,1496.0017L473.47552,1497.0581L473.487,1498.1631 Z"/> </g> <g style="fill:rgb(225,230,233); fill-opacity:1.0; stroke-linejoin: miter"> <path d="M473.52936,1502.2312L576.1995,1501.1635C576.0887,1500.7957,575.9635,1500.4283,575.86633,1500.0613L473.51782,1501.1259L473.52936,1502.2312 Z"/> </g> <g style="fill:rgb(83,93,102); fill-opacity:1.0; stroke-linejoin: miter"> <path d="M480.42728,1545.4166C472.27722,1545.5022,465.66354,1538.542,466.38892,1530.2196C467.02054,1522.967,473.47922,1517.5912,480.75897,1517.5154L579.92267,1516.486C581.36993,1516.4698,582.53094,1515.2845,582.5158,1513.8376L582.5158,1513.838C582.5008,1512.3904,581.31537,1511.2297,579.8682,1511.2445L480.88596,1512.2734C470.37897,1512.3827,461.30112,1520.5748,461.0953,1531.0802C460.88214,1541.9503,469.6873,1550.7717,480.4803,1550.6593L580.2672,1549.622C581.7145,1549.6072,582.8755,1548.4221,582.86035,1546.9742L582.86035,1546.9729C582.84534,1545.526,581.66003,1544.3654,580.21265,1544.3802L480.4273,1545.4176 Z"/> </g> <g style="fill:rgb(235,240,243); fill-opacity:1.0; stroke-linejoin: miter"> <path d="M466.38892,1530.2198C465.66336,1538.542,472.27722,1545.5023,480.4273,1545.4171L579.71545,1544.3855C575.2912,1535.1313,575.1945,1525.8335,579.42535,1516.49L480.7591,1517.5162C473.4788,1517.5919,467.02054,1522.967,466.38892,1530.2198 Z"/> </g> <g style="fill:rgb(225,230,233); fill-opacity:1.0; stroke-linejoin: miter"> <path d="M474.88626,1523.9406L577.2349,1522.8774C577.3243,1522.5067,577.4423,1522.1373,577.545,1521.7675L474.8747,1522.8357L474.88626,1523.9406 Z"/> </g> <g style="fill:rgb(225,230,233); fill-opacity:1.0; stroke-linejoin: miter"> <path d="M474.92856,1528.0082L576.49603,1526.9536C576.5358,1526.5831,576.6248,1526.2131,576.6777,1525.8446L474.91705,1526.9028L474.92856,1528.0082 Z"/> </g> <g style="fill:rgb(225,230,233); fill-opacity:1.0; stroke-linejoin: miter"> <path d="M474.9708,1532.0778L576.36237,1531.0249C576.3514,1530.6547,576.3475,1530.2861,576.3509,1529.9181L474.95932,1530.9728L474.9708,1532.0778 Z"/> </g> <g style="fill:rgb(225,230,233); fill-opacity:1.0; stroke-linejoin: miter"> <path d="M475.01312,1536.1478L576.77374,1535.0907C576.7132,1534.7211,576.61664,1534.3531,576.56915,1533.9856L475.00162,1535.0424L475.01312,1536.1478 Z"/> </g> <g style="fill:rgb(225,230,233); fill-opacity:1.0; stroke-linejoin: miter"> <path d="M475.05542,1540.2153L577.72565,1539.148C577.61505,1538.78,577.4898,1538.4125,577.39264,1538.046L475.0439,1539.1107L475.05542,1540.2153 Z"/> </g> <g style="fill:rgb(48,78,74); fill-opacity:1.0; stroke-linejoin: miter"> <path d="M462.5854,1317.691C454.43533,1317.7759,447.8218,1310.8163,448.5471,1302.4939C449.17886,1295.2415,455.63754,1289.8657,462.91714,1289.79L562.08075,1288.7593C563.5279,1288.7439,564.6888,1287.5583,564.67377,1286.1116L564.67377,1286.1119C564.6586,1284.664,563.4733,1283.5035,562.0262,1283.5186L463.04425,1284.5479C452.53732,1284.657,443.45944,1292.8489,443.2534,1303.354C443.04044,1314.2249,451.84552,1323.0457,462.6385,1322.9335L562.4253,1321.8964C563.87256,1321.8811,565.03357,1320.6954,565.01843,1319.2482L565.01843,1319.2467C565.0034,1317.7999,563.8181,1316.6388,562.3707,1316.6538L462.5854,1317.6919 Z"/> </g> <g style="fill:rgb(235,240,243); fill-opacity:1.0; stroke-linejoin: miter"> <path d="M448.5471,1302.4941C447.82162,1310.8163,454.43533,1317.776,462.5854,1317.6912L561.8734,1316.6589C557.44934,1307.4055,557.35254,1298.1077,561.58356,1288.7644L462.9174,1289.7904C455.6372,1289.8662,449.17886,1295.2415,448.5471,1302.4941 Z"/> </g> <g style="fill:rgb(225,230,233); fill-opacity:1.0; stroke-linejoin: miter"> <path d="M457.0445,1296.2148L559.39294,1295.1509C559.4824,1294.7806,559.60034,1294.4111,559.70306,1294.0422L457.03308,1295.1102L457.0445,1296.2148 Z"/> </g> <g style="fill:rgb(225,230,233); fill-opacity:1.0; stroke-linejoin: miter"> <path d="M457.0868,1300.2822L558.65393,1299.2275C558.694,1298.8569,558.7827,1298.4873,558.8357,1298.1185L457.07532,1299.1774L457.0868,1300.2822 Z"/> </g> <g style="fill:rgb(225,230,233); fill-opacity:1.0; stroke-linejoin: miter"> <path d="M457.12912,1304.352L558.5205,1303.2982C558.5094,1302.9288,558.5055,1302.5603,558.5089,1302.1923L457.1176,1303.247L457.12912,1304.352 Z"/> </g> <g style="fill:rgb(225,230,233); fill-opacity:1.0; stroke-linejoin: miter"> <path d="M457.17142,1308.422L558.9319,1307.3636C558.87146,1306.9956,558.7748,1306.6277,558.72705,1306.2599L457.15994,1307.3165L457.17142,1308.422 Z"/> </g> <g style="fill:rgb(225,230,233); fill-opacity:1.0; stroke-linejoin: miter"> <path d="M457.2137,1312.4899L559.8839,1311.422C559.7731,1311.0538,559.6478,1310.6868,559.55066,1310.3198L457.20224,1311.3846L457.2137,1312.4899 Z"/> </g> <g style="fill:rgb(136,70,54); fill-opacity:1.0; stroke-linejoin: miter"> <path d="M550.40283,1355.4038C558.55316,1355.3191,565.0202,1348.2231,564.1223,1339.9181C563.33997,1332.6799,556.77075,1327.4393,549.4911,1327.515L450.32742,1328.5466C448.88025,1328.561,447.69492,1327.4,447.67987,1325.9531L447.67987,1325.9535C447.66483,1324.5057,448.82578,1323.3206,450.27295,1323.3055L549.255,1322.277C559.7621,1322.1677,569.0083,1330.1694,569.43274,1340.6681C569.87164,1351.532,561.2519,1360.5339,550.45886,1360.6464L450.67197,1361.6831C449.22467,1361.6981,448.03943,1360.5372,448.02438,1359.09L448.02438,1359.0884C448.00934,1357.6412,449.17017,1356.456,450.61746,1356.441L550.40283,1355.4044 Z"/> </g> <g style="fill:rgb(235,240,243); fill-opacity:1.0; stroke-linejoin: miter"> <path d="M564.1223,1339.9183C565.02057,1348.2231,558.55316,1355.3193,550.40283,1355.4039L451.11456,1356.4363C455.34552,1347.0927,455.24908,1337.7948,450.8246,1328.5409L549.49084,1327.5156C556.77124,1327.44,563.33997,1332.6799,564.1223,1339.9183 Z"/> </g> <g style="fill:rgb(225,230,233); fill-opacity:1.0; stroke-linejoin: miter"> <path d="M555.4961,1333.8171L453.14752,1334.8807C453.05045,1334.513,452.9249,1334.1456,452.81454,1333.7787L555.4846,1332.712L555.4961,1333.8171 Z"/> </g> <g style="fill:rgb(225,230,233); fill-opacity:1.0; stroke-linejoin: miter"> <path d="M555.53845,1337.8849L453.97116,1338.94C453.92343,1338.5719,453.82697,1338.2039,453.76642,1337.8363L555.52686,1336.7792L555.53845,1337.8849 Z"/> </g> <g style="fill:rgb(225,230,233); fill-opacity:1.0; stroke-linejoin: miter"> <path d="M555.5807,1341.9542L454.18924,1343.0094C454.19254,1342.6392,454.1887,1342.2701,454.17773,1341.9021L555.5692,1340.849L555.5807,1341.9542 Z"/> </g> <g style="fill:rgb(225,230,233); fill-opacity:1.0; stroke-linejoin: miter"> <path d="M555.6229,1346.0239L453.86243,1347.0828C453.91528,1346.7119,454.00424,1346.342,454.04422,1345.9738L555.61145,1344.9187L555.6229,1346.0239 Z"/> </g> <g style="fill:rgb(225,230,233); fill-opacity:1.0; stroke-linejoin: miter"> <path d="M555.6652,1350.0918L452.99512,1351.1584C453.09824,1350.7885,453.2157,1350.4185,453.3051,1350.0496L555.6536,1348.9866L555.6652,1350.0918 Z"/> </g> <g style="fill:rgb(83,93,102); fill-opacity:1.0; stroke-linejoin: miter"> <path d="M549.6665,1393.4117C557.8167,1393.3274,564.2841,1386.2316,563.38605,1377.9261C562.6036,1370.6881,556.0345,1365.4475,548.7549,1365.5234L449.59122,1366.5553C448.14407,1366.5691,446.95874,1365.4083,446.9437,1363.961L446.9437,1363.9615C446.92865,1362.5139,448.0896,1361.3287,449.5367,1361.3136L548.51886,1360.2853C559.02594,1360.1758,568.27216,1368.1775,568.69635,1378.6764C569.13544,1389.5397,560.51556,1398.5421,549.72253,1398.6544L449.93573,1399.6913C448.48856,1399.7064,447.3032,1398.5457,447.28815,1397.0979L447.28815,1397.0963C447.2731,1395.6494,448.43405,1394.4644,449.88123,1394.4492L549.6665,1393.4126 Z"/> </g> <g style="fill:rgb(235,240,243); fill-opacity:1.0; stroke-linejoin: miter"> <path d="M563.38605,1377.9265C564.28424,1386.2316,557.8167,1393.3275,549.6665,1393.4122L450.37845,1394.4441C454.60934,1385.1006,454.51266,1375.8026,450.0884,1366.549L548.75464,1365.5242C556.035,1365.4482,562.6036,1370.6881,563.38605,1377.9265 Z"/> </g> <g style="fill:rgb(225,230,233); fill-opacity:1.0; stroke-linejoin: miter"> <path d="M554.75995,1371.8252L452.4113,1372.8887C452.31427,1372.5208,452.18854,1372.1537,452.0782,1371.7865L554.74835,1370.7202L554.75995,1371.8252 Z"/> </g> <g style="fill:rgb(225,230,233); fill-opacity:1.0; stroke-linejoin: miter"> <path d="M554.8022,1375.8927L453.23483,1376.9495C453.1873,1376.58,453.09067,1376.2118,453.03006,1375.8446L554.7907,1374.7875L554.8022,1375.8927 Z"/> </g> <g style="fill:rgb(225,230,233); fill-opacity:1.0; stroke-linejoin: miter"> <path d="M554.8444,1379.9622L453.45294,1381.0171C453.4563,1380.6469,453.45245,1380.2782,453.44144,1379.9104L554.83295,1378.8572L554.8444,1379.9622 Z"/> </g> <g style="fill:rgb(225,230,233); fill-opacity:1.0; stroke-linejoin: miter"> <path d="M554.8868,1384.0322L453.12613,1385.0897C453.17905,1384.7198,453.268,1384.35,453.30786,1383.9816L554.8753,1382.9269L554.8868,1384.0322 Z"/> </g> <g style="fill:rgb(225,230,233); fill-opacity:1.0; stroke-linejoin: miter"> <path d="M554.92914,1388.0996L452.25888,1389.1665C452.36188,1388.7964,452.47946,1388.4264,452.56894,1388.0579L554.91754,1386.9948L554.92914,1388.0996 Z"/> </g> <g style="fill:rgb(60,70,79); fill-opacity:1.0; stroke-linejoin: miter"> <path d="M461.7069,1432.7628C453.55682,1432.8474,446.94333,1425.8878,447.66864,1417.5657C448.3003,1410.3127,454.75894,1404.937,462.03873,1404.8615L561.20233,1403.8307C562.6495,1403.8153,563.8104,1402.6301,563.7954,1401.1832L563.7954,1401.1835C563.78046,1399.7361,562.59515,1398.5753,561.148,1398.5903L462.1658,1399.6198C451.6588,1399.7289,442.58096,1407.9205,442.37503,1418.4263C442.16196,1429.296,450.967,1438.1178,461.76,1438.0055L561.54694,1436.9691C562.99396,1436.9529,564.1549,1435.7672,564.1399,1434.3202L564.1399,1434.3185C564.1249,1432.8716,562.9395,1431.7109,561.4924,1431.726L461.7069,1432.7632 Z"/> </g> <g style="fill:rgb(235,240,243); fill-opacity:1.0; stroke-linejoin: miter"> <path d="M447.66864,1417.5659C446.94315,1425.8878,453.55682,1432.8475,461.7069,1432.7628L560.99506,1431.7312C556.571,1422.4775,556.4742,1413.1793,560.70514,1403.8359L462.0389,1404.8622C454.7585,1404.9376,448.3003,1410.3127,447.66864,1417.5659 Z"/> </g> <g style="fill:rgb(225,230,233); fill-opacity:1.0; stroke-linejoin: miter"> <path d="M456.16605,1411.2864L558.5146,1410.2227C558.60406,1409.8524,558.722,1409.4829,558.82465,1409.1136L456.15457,1410.1814L456.16605,1411.2864 Z"/> </g> <g style="fill:rgb(225,230,233); fill-opacity:1.0; stroke-linejoin: miter"> <path d="M456.20828,1415.354L557.7756,1414.2993C557.8155,1413.9287,557.9046,1413.5591,557.9572,1413.1903L456.19678,1414.2485L456.20828,1415.354 Z"/> </g> <g style="fill:rgb(225,230,233); fill-opacity:1.0; stroke-linejoin: miter"> <path d="M456.25064,1419.4237L557.64215,1418.3699C557.63104,1418.001,557.62726,1417.6326,557.6307,1417.2644L456.23917,1418.3187L456.25064,1419.4237 Z"/> </g> <g style="fill:rgb(225,230,233); fill-opacity:1.0; stroke-linejoin: miter"> <path d="M456.29297,1423.4935L558.0534,1422.4354C557.9931,1422.0673,557.8963,1421.6995,557.8487,1421.3318L456.28146,1422.3882L456.29297,1423.4935 Z"/> </g> <g style="fill:rgb(225,230,233); fill-opacity:1.0; stroke-linejoin: miter"> <path d="M456.3352,1427.561L559.00555,1426.4949C558.8947,1426.1261,558.76935,1425.7588,558.6723,1425.3916L456.3237,1426.456L456.3352,1427.561 Z"/> </g> <g style="fill:rgb(136,70,54); fill-opacity:1.0; stroke-linejoin: miter"> <path d="M539.5937,1203.9208C547.74396,1203.8363,554.2112,1196.7402,553.3132,1188.435C552.5308,1181.197,545.9616,1175.9565,538.68207,1176.0326L439.5185,1177.0637C438.07126,1177.0781,436.88593,1175.9174,436.87088,1174.4702L436.87088,1174.4706C436.85583,1173.023,438.01685,1171.8378,439.46405,1171.8228L538.44586,1170.7946C548.95294,1170.6853,558.19904,1178.6865,558.6234,1189.1848C559.0624,1200.0486,550.4426,1209.0511,539.6497,1209.1635L439.86295,1210.2003C438.41562,1210.2153,437.23038,1209.0546,437.21545,1207.6072L437.21545,1207.6053C437.2004,1206.1584,438.3611,1204.9733,439.8085,1204.9583L539.5938,1203.9214 Z"/> </g> <g style="fill:rgb(235,240,243); fill-opacity:1.0; stroke-linejoin: miter"> <path d="M553.3132,1188.4353C554.21155,1196.7402,547.74396,1203.8363,539.5938,1203.921L440.3056,1204.9534C444.53656,1195.6096,444.44,1186.3116,440.01562,1177.058L538.6818,1176.0332C545.9621,1175.9572,552.5308,1181.197,553.3132,1188.4353 Z"/> </g> <g style="fill:rgb(225,230,233); fill-opacity:1.0; stroke-linejoin: miter"> <path d="M544.8138,1194.541L443.0535,1195.6C443.10638,1195.2291,443.19525,1194.8594,443.23523,1194.4911L544.8023,1193.4359L544.8138,1194.541 Z"/> </g> <g style="fill:rgb(225,230,233); fill-opacity:1.0; stroke-linejoin: miter"> <path d="M544.85614,1198.6086L442.18613,1199.6759C442.28928,1199.3057,442.40674,1198.936,442.49622,1198.5669L544.84467,1197.5037L544.85614,1198.6086 Z"/> </g> <g style="fill:rgb(83,93,102); fill-opacity:1.0; stroke-linejoin: miter"> <path d="M538.85736,1241.9287C547.0077,1241.8444,553.4751,1234.7485,552.5769,1226.4434C551.79443,1219.2053,545.2254,1213.9648,537.94574,1214.0404L438.78226,1215.0725C437.33502,1215.0863,436.1497,1213.9252,436.13464,1212.4781L436.13464,1212.4788C436.1196,1211.0311,437.28052,1209.8458,438.72775,1209.8308L537.7098,1208.8022C548.21686,1208.693,557.4629,1216.6945,557.8872,1227.1935C558.3263,1238.0569,549.7064,1247.059,538.9134,1247.1715L439.12665,1248.2085C437.67938,1248.2235,436.4941,1247.0626,436.47906,1245.615L436.47906,1245.6135C436.46402,1244.1666,437.62494,1242.9816,439.0722,1242.9666L538.85736,1241.9296 Z"/> </g> <g style="fill:rgb(235,240,243); fill-opacity:1.0; stroke-linejoin: miter"> <path d="M552.5769,1226.4434C553.4752,1234.7485,547.0077,1241.8447,538.85736,1241.929L439.56943,1242.9613C443.80032,1233.618,443.70364,1224.3196,439.27945,1215.066L537.9456,1214.0414C545.2259,1213.9655,551.79443,1219.2053,552.5769,1226.4434 Z"/> </g> <g style="fill:rgb(225,230,233); fill-opacity:1.0; stroke-linejoin: miter"> <path d="M543.9508,1220.3419L441.6022,1221.4058C441.5052,1221.0377,441.37952,1220.6707,441.26913,1220.3037L543.93933,1219.2373L543.9508,1220.3419 Z"/> </g> <g style="fill:rgb(225,230,233); fill-opacity:1.0; stroke-linejoin: miter"> <path d="M543.99316,1224.4094L442.42572,1225.4667C442.37814,1225.0967,442.28152,1224.729,442.221,1224.3618L543.9817,1223.3044L543.99316,1224.4094 Z"/> </g> <g style="fill:rgb(225,230,233); fill-opacity:1.0; stroke-linejoin: miter"> <path d="M544.0354,1228.4791L442.64398,1229.5344C442.64734,1229.1642,442.6435,1228.7958,442.63248,1228.428L544.0239,1227.3744L544.0354,1228.4791 Z"/> </g> <g style="fill:rgb(225,230,233); fill-opacity:1.0; stroke-linejoin: miter"> <path d="M544.07776,1232.5492L442.31717,1233.6069C442.37006,1233.2372,442.459,1232.8674,442.49884,1232.4993L544.0663,1231.4437L544.07776,1232.5492 Z"/> </g> <g style="fill:rgb(225,230,233); fill-opacity:1.0; stroke-linejoin: miter"> <path d="M544.1201,1236.6168L441.4499,1237.6838C441.55286,1237.3137,441.67044,1236.9437,441.76,1236.5752L544.1085,1235.512L544.1201,1236.6168 Z"/> </g> <g style="fill:rgb(60,70,79); fill-opacity:1.0; stroke-linejoin: miter"> <path d="M450.8979,1281.28C442.7478,1281.365,436.13434,1274.4049,436.85965,1266.0826C437.49133,1258.8302,443.9501,1253.4547,451.2297,1253.3787L550.3933,1252.348C551.8404,1252.3325,553.0014,1251.1473,552.9864,1249.7004L552.9864,1249.7007C552.97125,1248.2534,551.7858,1247.0922,550.33887,1247.1074L451.3567,1248.1366C440.84973,1248.246,431.77185,1256.4376,431.5659,1266.943C431.35287,1277.8134,440.15787,1286.6349,450.95093,1286.5223L550.73773,1285.486C552.1849,1285.4696,553.3459,1284.2843,553.3309,1282.8374L553.33075,1282.8356C553.31573,1281.3884,552.1303,1280.2278,550.6833,1280.2429L450.8979,1281.2805 Z"/> </g> <g style="fill:rgb(235,240,243); fill-opacity:1.0; stroke-linejoin: miter"> <path d="M436.85965,1266.083C436.1341,1274.4049,442.7478,1281.365,450.8979,1281.28L550.18585,1280.2484C545.762,1270.9945,545.66516,1261.6965,549.8961,1252.3531L451.22995,1253.3793C443.94965,1253.4553,437.49133,1258.8302,436.85965,1266.083 Z"/> </g> <g style="fill:rgb(225,230,233); fill-opacity:1.0; stroke-linejoin: miter"> <path d="M445.3571,1259.8038L547.70557,1258.74C547.79504,1258.3699,547.91296,1258.0002,548.0156,1257.631L445.3456,1258.6987L445.3571,1259.8038 Z"/> </g> <g style="fill:rgb(225,230,233); fill-opacity:1.0; stroke-linejoin: miter"> <path d="M445.39938,1263.8712L546.96655,1262.8167C547.0066,1262.4459,547.0956,1262.0764,547.14844,1261.7076L445.38788,1262.7657L445.39938,1263.8712 Z"/> </g> <g style="fill:rgb(225,230,233); fill-opacity:1.0; stroke-linejoin: miter"> <path d="M445.44168,1267.9409L546.8331,1266.887C546.822,1266.518,546.81824,1266.1497,546.82166,1265.7812L445.4302,1266.8357L445.44168,1267.9409 Z"/> </g> <g style="fill:rgb(225,230,233); fill-opacity:1.0; stroke-linejoin: miter"> <path d="M445.48395,1272.0106L547.24445,1270.9526C547.184,1270.5845,547.08734,1270.2164,547.0396,1269.8491L445.47244,1270.9053L445.48395,1272.0106 Z"/> </g> <g style="fill:rgb(225,230,233); fill-opacity:1.0; stroke-linejoin: miter"> <path d="M445.52625,1276.0782L548.1965,1275.0121C548.08575,1274.6428,547.9604,1274.276,547.8632,1273.9088L445.51474,1274.9733L445.52625,1276.0782 Z"/> </g> <g style="fill:rgb(109,101,90); fill-opacity:1.0; stroke-linejoin: miter"> <path d="M462.4887,1050.606L462.50076,1050.6024L462.4408,1050.6633L462.36594,1050.74L462.34766,1050.7412L462.3375,1050.7389L462.33554,1050.7327L462.3411,1050.7223L462.35425,1050.7073L462.37646,1050.6881L462.40613,1050.6648L462.44357,1050.6373L462.4887,1050.606 Z"/> </g> <g style="fill:rgb(90,43,22); fill-opacity:1.0; stroke-linejoin: miter"> <path d="M599.048,929.53625L600.59393,928.0844Q607.1441,926.3817,613.08984,931.81055Q620.5945,937.9029,623.8899,946.58984Q625.47974,951.72217,623.9241,956.1778Q622.93713,960.1644,615.9331,969.5842Q618.22314,975.97754,618.4695,979.8224Q618.51697,983.1556,616.65405,984.61743Q614.14404,987.40826,598.461,989.4414L593.5777,983.71405L585.2664,990.31305L576.7955,967.09436L599.048,929.53625 Z"/> </g> <g style="fill:rgb(255,178,152); fill-opacity:1.0; stroke-linejoin: miter"> <path d="M578.58026,866.93823L578.2182,860.1949Q577.4183,857.2646,577.913,855.6498Q578.1186,854.6796,579.3355,852.4237L582.2371,845.2208L583.50696,841.0829L582.3954,837.6913L584.1625,836.9457L584.8728,838.8427L584.9286,840.4643Q585.2865,838.6877,585.7588,838.1368Q586.1781,837.52625,587.60364,836.9794L589.4568,828.3693L591.9093,828.6566L589.45337,837.60706L591.8915,827.99603L594.1807,829.22754L591.9387,841.48035L591.24005,846.8225L587.7686,857.2801L585.7708,866.7027L578.58026,866.93823 Z"/> </g> <g style="fill:rgb(255,255,255); fill-opacity:1.0; stroke-linejoin: miter"> <path d="M521.8599,1051.5579L524.2972,1039.0035C526.4733,1027.795,528.7214,1023.15405,529.4069,1021.09296C530.3011,1018.4042,533.2041,1006.0673,536.76324,1002.22015C539.82526,987.99976,544.1014,983.4662,547.7119,980.1926C551.3223,976.9192,555.23895,976.5876,555.23895,976.5876C559.8311,969.6269,563.1755,965.4018,565.2719,963.91223C563.3848,957.73834,562.90643,951.341,563.59576,944.6936C563.94037,941.37134,564.33,936.7523,565.00653,930.8585L567.4827,919.16693C568.5402,906.53973,569.7537,898.5101,570.61786,894.94244C572.6568,886.52344,574.8741,876.8064,577.779,865.9091L586.5362,865.07837L585.16205,884.0849C585.05597,886.5843,585.378,889.6248,586.1285,893.2069L585.536,907.6592C585.4016,909.49133,585.0941,911.35785,584.6135,913.2589L581.0864,924.61127C580.74023,926.33966,580.58545,928.3348,580.6221,930.59625L583.10944,973.11597C585.1528,978.8909,586.3266,982.5841,586.71796,984.1755C587.16925,986.0112,587.259,987.45776,586.9008,988.53674C587.41864,990.3116,587.8586,992.1232,588.03766,993.9924C588.3094,996.82904,587.9123,999.17645,587.1396,1001.06506C586.23535,1003.2754,584.9404,1005.51263,583.46265,1007.9362C583.0481,1008.6162,579.0321,1013.97064,571.3411,1024.0319C569.1636,1026.8805,567.38873,1030.1526,565.58905,1033.5676C562.28864,1039.83,560.6523,1046.7443,560.8389,1054.3953L521.8599,1051.5579 Z"/> </g> <g style="fill:rgb(255,178,152); fill-opacity:1.0; stroke-linejoin: miter"> <path d="M581.89764,1229.297L586.0876,1243.4536Q584.9493,1245.8354,584.02386,1246.8894Q582.9664,1248.204,581.14154,1248.8152Q578.7974,1249.5479,575.0263,1249.2225Q571.6993,1248.92,570.623,1247.8988L568.8955,1231.1315L581.89764,1229.297 Z"/> </g> <g style="fill:rgb(255,178,152); fill-opacity:1.0; stroke-linejoin: miter"> <path d="M479.94614,1135.5042L482.73468,1150.1476Q478.96442,1150.4703,477.66147,1150.4723Q475.89423,1150.5132,474.58673,1150.2446Q472.47708,1149.86,467.34164,1147.2313L467.19754,1134.8147L479.94614,1135.5042 Z"/> </g> <g style="fill:rgb(0,0,0); fill-opacity:1.0; stroke-linejoin: miter"> <path d="M480.7701,1136.9629L466.85617,1139.5139Q464.70404,1129.2761,462.35086,1122.5488L454.6199,1105.0187L451.3075,1094.3866L447.87222,1087.2113L447.05078,1084.6185Q446.1516,1081.9067,447.91608,1074.447Q450.27383,1065.014,452.46375,1063.6505Q454.6776,1061.7654,458.79376,1061.0961Q471.48923,1058.7924,480.1462,1058.0409Q484.35226,1056.9961,521.5701,1058.3597L521.24384,1050.3398Q523.9393,1050.9713,526.3802,1050.8273Q537.81995,1048.469,542.2018,1049.007Q547.7825,1049.1471,561.2076,1051.5488Q560.5479,1055.1965,561.8853,1059.4861Q562.62274,1061.5139,563.1849,1062.3958Q567.4167,1068.0662,568.1713,1070.1292Q569.6463,1074.0903,569.4748,1077.3381Q569.47003,1081.0159,568.0292,1085.6173Q567.8031,1087.0316,561.19714,1101.8883Q560.0669,1104.3948,559.2958,1109.0844Q558.5189,1113.7023,560.7301,1121.9993Q558.78827,1146.4331,559.5295,1149.6882Q560.44794,1159.6262,562.148,1162.9404Q562.9819,1166.3752,572.85614,1182.5975Q574.2913,1185.1794,575.697,1191.2256Q577.8927,1209.7443,583.1441,1231.2194Q579.55707,1235.5962,575.96545,1235.8778L568.78076,1236.4393Q567.0646,1228.372,564.47046,1221.9788Q561.9918,1215.568,554.11487,1199.2635L547.8404,1184.0001Q546.21185,1180.8116,544.9428,1179.5431L538.6219,1173.8698Q537.7336,1173.0582,536.447,1170.0616L533.6005,1161.1288L528.4621,1148.3759Q526.9721,1143.6868,525.7585,1137.2222Q522.6255,1122.3599,522.2328,1094.7522Q496.74786,1092.321,477.16037,1086.6189Q473.02438,1086.0293,470.22006,1087.0006L474.23734,1094.2837L475.6516,1099.3926Q476.7002,1103.6194,478.12845,1121.0188L480.7701,1136.9629 Z"/> </g> <g style="fill:rgb(0,0,0); fill-opacity:1.0; stroke-linejoin: miter"> <path d="M569.92365,1246.2999L570.44135,1246.5688Q575.40045,1249.4708,579.0704,1248.7767Q582.5623,1248.2476,586.07684,1243.3772Q587.2502,1244.4307,588.17694,1245.0732Q592.83405,1247.683,593.31244,1248.3568Q594.84454,1249.6477,597.8702,1253.8485Q599.6309,1256.055,597.16437,1261.4696Q596.0253,1264.2345,593.1358,1266.9451Q592.11523,1267.8392,590.90454,1268.6959Q584.9761,1272.6045,583.93176,1273.6188Q583.32336,1274.105,582.0255,1275.463Q577.3622,1281.0198,575.8648,1282.2671Q573.65106,1284.439,569.1016,1287.2155Q564.3715,1290.0544,559.6967,1290.5192Q558.13837,1290.6952,556.06647,1290.2902Q555.12384,1290.131,552.80817,1289.1716Q551.3593,1289.0719,550.7868,1288.6896Q548.4473,1287.1589,546.8527,1283.793Q545.67255,1281.2172,546.4184,1279.5875Q546.85333,1278.5686,547.92474,1277.7311Q548.26215,1277.3728,552.5263,1274.9004Q553.69965,1274.1533,554.83417,1273.138Q556.2735,1271.9353,558.543,1268.8176Q559.31,1267.7871,560.89935,1265.0814Q561.9543,1263.2893,565.5441,1256.2098Q566.35077,1254.7123,567.5899,1252.9197L569.92365,1246.2999 Z"/> </g> <g style="fill:rgb(0,0,0); fill-opacity:1.0; stroke-linejoin: miter"> <path d="M574.9334,1259.6819L574.9333,1259.6832L574.9334,1259.6819L574.93317,1259.6829 Z"/> </g> <g style="fill:rgb(0,0,0); fill-opacity:1.0; stroke-linejoin: miter"> <path d="M466.78354,1146.4525L468.4429,1147.3535Q472.70258,1149.6963,472.70285,1149.6351Q473.80487,1150.124,474.7552,1150.2855Q477.1339,1150.723,483.41437,1149.9987Q487.51923,1160.8977,489.47015,1164.0547Q489.9945,1166.141,488.50372,1167.5801Q487.77728,1168.2074,486.4403,1168.5105Q479.08688,1170.298,477.08832,1170.5441Q475.5867,1170.7606,474.30283,1170.8568Q465.79834,1171.3818,464.2872,1171.5736L455.31076,1172.6449Q447.67618,1173.1582,443.3091,1170.8387Q440.14627,1169.0126,438.82584,1165.9303Q437.01334,1161.4867,438.47836,1159.6176Q439.13156,1158.9858,439.6425,1159.107Q439.7303,1159.0912,440.25647,1159.2532L442.09964,1159.9756Q442.7458,1160.186,443.51865,1160.341Q444.88544,1160.6481,447.22342,1160.7275Q452.72528,1160.6034,453.63654,1159.9968Q454.61874,1159.5514,455.92996,1158.3755Q462.85187,1151.829,464.58972,1150.4174Q465.4885,1149.6167,466.78354,1146.4525 Z"/> </g> <g style="fill:rgb(255,180,147); fill-opacity:1.0; stroke-linejoin: miter"> <path d="M442.5295,1011.1378L442.5299,1011.1395L442.5292,1011.1372L442.52917,1011.13806 Z"/> </g> <g style="fill:rgb(255,178,152); fill-opacity:1.0; stroke-linejoin: miter"> <path d="M573.4447,974.5188L573.0845,974.5227Q570.7379,974.61285,569.14355,973.9257Q567.7235,973.3697,564.94305,970.78265L565.6274,967.33234Q567.3546,962.93646,568.33594,961.325Q569.8563,958.5079,573.8814,954.89185L571.58215,951.5926Q569.51807,950.5564,568.9116,949.0635Q567.78577,946.1923,568.6443,944.2039Q569.2007,942.89056,572.45715,942.67395Q573.15283,941.07635,573.6615,940.47687Q574.28577,939.8111,575.1974,940.0668L577.0676,938.42444Q576.9662,937.50574,577.36084,937.27704Q577.81836,936.96893,579.5558,937.0589Q579.75977,936.01556,579.709,935.34L579.29626,932.9274Q579.2207,932.4673,579.23584,932.0199Q579.32886,931.11145,579.84644,930.9085Q580.4995,930.56696,582.16296,930.8505Q583.00745,930.9328,586.9182,932.22217Q587.6837,932.39844,588.4551,932.3293Q589.22766,932.24225,590.0366,931.8504Q593.64136,929.7402,595.29297,929.2315Q596.9651,928.6061,601.6121,927.83057Q602.7869,929.76935,603.00275,931.2167Q603.175,932.0507,603.2326,934.2829L603.9722,940.443L599.10254,940.3201L593.7328,945.3828L593.9449,952.4531Q600.0407,953.8221,600.68,956.6777Q601.4039,958.8946,596.7447,960.37756Q598.65424,961.4789,598.17474,962.11273Q598.1497,962.3656,596.8952,962.9954Q596.23676,963.3537,592.7834,964.4967L586.1518,967.7208L581.04584,966.3286L573.4447,974.5188 Z"/> </g> <g style="fill:rgb(90,43,22); fill-opacity:1.0; stroke-linejoin: miter"> <path d="M611.1531,984.1327L606.31274,987.9249Q599.3276,989.72473,595.9338,990.10846Q592.6071,990.4094,592.08966,990.2827Q590.9019,990.22205,589.87067,989.9633Q587.837,989.4001,586.33856,988.22076Q585.80084,987.91724,581.6563,983.99054Q581.36163,983.6409,579.5993,982.76733Q577.49677,981.679,571.6657,981.8861L547.03314,972.78394Q557.8245,974.3305,560.9428,973.3243Q562.0616,973.0775,562.9997,972.6284L563.88873,972.1262Q564.72845,971.5686,565.4489,970.8737L569.0038,967.2406Q571.05896,965.638,571.69165,965.52435Q573.7869,964.665,576.8875,964.7703Q579.99164,964.8785,583.7413,965.6076Q586.4903,966.09424,593.51996,967.8202L611.1531,984.1327 Z"/> </g> <g style="fill:rgb(255,255,255); fill-opacity:1.0; stroke-linejoin: miter"> <path d="M577.1006,938.40784L577.0996,938.4092L577.55176,942.054Q576.30396,941.11487,575.05615,940.1765L577.1006,938.40784 Z"/> </g> <g style="fill:rgb(255,0,0); fill-opacity:1.0; stroke-linejoin: miter"> <path d="M577.93335,937.0594L577.79236,942.25525L574.08606,940.12213Q574.2478,939.8493,574.4293,939.81165Q574.70154,939.7798,574.92957,939.9034Q575.4282,940.0976,577.31775,941.5825Q577.2705,940.8122,577.22205,940.2772L577.0344,938.52057Q576.9999,938.0481,577.0342,937.83734Q577.06506,937.5035,577.3395,937.223L577.93335,937.0594 Z"/> </g> <g style="fill:rgb(255,0,0); fill-opacity:1.0; stroke-linejoin: miter"> <path d="M607.06647,934.2903L607.0661,934.2913L607.06647,934.2903L607.0661,934.2913 Z"/> </g> <g style="fill:rgb(90,43,22); fill-opacity:1.0; stroke-linejoin: miter"> <path d="M590.4646,932.5909L590.8087,932.88116Q591.86584,933.7643,592.72754,934.56104Q593.63367,935.4278,593.8721,935.80444Q594.1919,936.27686,594.22986,936.6107Q594.3054,936.9388,594.07324,937.52954L590.4646,932.5909 Z"/> </g> <g style="fill:rgb(255,255,255); fill-opacity:1.0; stroke-linejoin: miter"> <path d="M589.80273,934.547L590.2606,936.0444L590.7189,937.5435Q589.6317,936.3233,588.54443,935.1026L589.80273,934.547 Z"/> </g> <g style="fill:rgb(255,255,255); fill-opacity:1.0; stroke-linejoin: miter"> <path d="M587.7478,941.30725L587.74756,941.308L587.7473,941.3074L587.74756,941.308 Z"/> </g> <g style="fill:rgb(0,0,0); fill-opacity:1.0; stroke-linejoin: miter"> <path d="M589.7622,934.5789L589.7335,934.58984Q589.52454,934.6582,588.4889,935.1184Q588.64233,935.4345,588.7594,935.56146Q588.8059,935.6132,588.85974,935.65405L588.9159,935.6914Q588.974,935.7253,589.04395,935.74384Q589.1124,935.76215,589.1924,935.76544L589.27356,935.7656Q589.359,935.76105,589.44995,935.74524Q589.6786,935.70966,590.1472,935.55975L589.7622,934.5789 Z"/> </g> <g style="fill:rgb(0,0,0); fill-opacity:1.0; stroke-linejoin: miter"> <path d="M594.1932,978.30304L594.19257,978.3055L594.1923,978.3034L594.1927,978.304 Z"/> </g> <g style="fill:rgb(0,0,0); fill-opacity:1.0; stroke-linejoin: miter"> <path d="M616.74207,971.907L608.4229,972.29926Q608.68317,970.8154,608.679,970.14557Q608.69965,969.4641,608.46954,968.24805L616.99,968.36725Q616.29443,969.3534,616.2831,969.953Q616.2062,970.50684,616.74207,971.907 Z"/> </g> <g style="fill:rgb(255,0,0); fill-opacity:0.99607843; stroke-linejoin: miter"> <path d="M565.2824,874.2776L565.2828,874.27844L565.2824,874.2776L565.2828,874.27844 Z"/> </g> <g style="fill:rgb(255,178,152); fill-opacity:1.0; stroke-linejoin: miter"> <path d="M545.92584,1069.7537L545.9703,1070.543Q546.2818,1074.9465,545.5566,1076.8304Q544.96027,1078.0968,544.7044,1078.2156Q543.95294,1078.9552,542.84393,1079.3392Q542.6037,1079.4722,541.0656,1079.8019Q539.7912,1080.0234,538.4383,1080.1648Q525.1615,1082.7428,524.0582,1082.8645L519.24634,1085.4003L515.4374,1086.9364L514.6376,1085.362Q516.3235,1083.4664,517.11847,1082.8406Q517.9216,1082.1569,519.43097,1081.4333L521.4732,1079.6735L509.92856,1086.8102L508.95792,1084.6431L517.6849,1078.7258L507.23898,1086.557L506.67642,1084.1465L515.56903,1077.9541L509.8309,1081.912L515.16644,1076.1343Q522.5632,1073.1208,524.0056,1072.2516Q526.57227,1071.5355,530.99744,1070.8536Q533.1306,1070.5381,535.461,1070.581L537.3851,1068.2654L545.92584,1069.7537 Z"/> </g> <g style="fill:rgb(155,146,134); fill-opacity:1.0; stroke-linejoin: miter"> <path d="M549.7281,1060.8066L551.3316,1060.2954Q550.89276,1060.479,550.4893,1060.6073Q550.35565,1060.6514,550.1163,1060.7191Q550.0295,1060.7415,549.8813,1060.7753L549.7171,1060.812L549.7286,1060.8076 Z"/> </g> <g style="fill:rgb(255,255,255); fill-opacity:1.0; stroke-linejoin: miter"> <path d="M554.05414,1041.3501L554.05414,1041.3506L546.6722,1071.6575Q541.1503,1070.6309,535.6286,1069.6042Q537.67554,1055.2236,539.7224,1040.8431L554.05414,1041.3501"/> </g> <g style="fill:rgb(255,255,255); fill-opacity:1.0; stroke-linejoin: miter"> <path d="M351.81165,1098.2549C352.24792,1096.6205,352.45508,1094.9349,352.42792,1093.228C352.26428,1083.135,343.92026,1075.0562,333.82675,1075.22C329.62808,1075.2872,325.55002,1076.8119,322.34378,1079.5118C319.4924,1081.9132,317.43228,1085.1475,316.45944,1088.7161C309.69543,1088.194,303.65866,1092.5786,301.85193,1098.8646C300.82568,1098.6477,299.7788,1098.5475,298.7256,1098.5653C290.95837,1098.6909,284.74054,1105.0662,284.86597,1112.8341C284.992,1120.6025,291.41257,1126.7739,299.17984,1126.6486L348.3612,1125.8546C356.12946,1125.7289,362.347,1119.352,362.2215,1111.5844C362.11874,1105.2289,357.82477,1099.8656,351.81165,1098.2549 Z"/> </g> <g style="fill:rgb(255,255,255); fill-opacity:1.0; stroke-linejoin: miter"> <path d="M776.89923,799.1432C777.3355,797.5088,777.54266,795.82324,777.5155,794.11633C777.35187,784.0233,769.0078,775.94446,758.9143,776.1083C754.7157,776.17554,750.6376,777.7002,747.4314,780.40015C744.57996,782.8015,742.5199,786.03577,741.547,789.6044C734.783,789.0823,728.7462,793.4669,726.9395,799.7529C725.91327,799.536,724.8664,799.4358,723.8132,799.4536C716.04596,799.5792,709.8281,805.95447,709.95355,813.7224C710.0796,821.49084,716.5001,827.66223,724.26746,827.53687L773.4488,826.7429C781.21704,826.6172,787.4346,820.24036,787.3091,812.47266C787.2063,806.1172,782.91235,800.7539,776.89923,799.1432 Z"/> </g> <g style="fill:rgb(255,255,255); fill-opacity:1.0; stroke-linejoin: miter"> <path d="M891.1838,1145.1294C890.6901,1143.5112,890.42365,1141.8341,890.39056,1140.1273C890.1979,1130.0348,898.25165,1121.6666,908.34467,1121.474C912.543,1121.3933,916.6723,1122.773,919.9719,1125.3583C922.90625,1127.6573,925.0791,1130.817,926.17737,1134.3489C932.91864,1133.5885,939.1064,1137.7574,941.13385,1143.976C942.15173,1143.7229,943.19446,1143.5857,944.2477,1143.566C952.0144,1143.4177,958.45325,1149.5695,958.60205,1157.337C958.75024,1165.1051,952.5515,1171.4991,944.78455,1171.6478L895.606,1172.5896C887.8382,1172.7382,881.3994,1166.5848,881.25073,1158.8175C881.1292,1152.4626,885.2311,1146.951,891.1838,1145.1294 Z"/> </g> <g style="fill:rgb(255,255,255); fill-opacity:1.0; stroke-linejoin: miter"> <path d="M174.07791,1326.0581C173.30133,1323.5195,172.8812,1320.8875,172.82736,1318.209C172.5138,1302.3695,185.1444,1289.2273,200.98454,1288.9141C207.57353,1288.7823,214.0559,1290.9434,219.23708,1294.9968C223.84496,1298.602,227.2587,1303.5586,228.98624,1309.1006C239.56555,1307.8998,249.28148,1314.4355,252.47025,1324.1924C254.0676,1323.7944,255.70383,1323.578,257.35675,1323.5465C269.54608,1323.3044,279.65836,1332.9525,279.9005,1345.1431C280.1417,1357.3341,270.42032,1367.3763,258.2308,1367.6183L181.04892,1369.1514C168.85793,1369.393,158.74588,1359.7422,158.50394,1347.5525C158.30608,1337.5785,164.73778,1328.924,174.07791,1326.0581 Z"/> </g> <g style="fill:rgb(255,0,0); fill-opacity:1.0; stroke-linejoin: miter"> <path d="M596.50653,996.0107L595.70197,995.0151Q593.3261,991.9464,590.60895,989.6146Q589.6906,988.86456,588.69635,988.2783L587.6785,987.74316Q586.7586,987.2797,585.25714,986.9387Q582.66693,986.43207,579.3414,986.9792Q575.54926,987.58374,569.0238,989.7568Q575.23517,989.24554,578.30365,989.4744Q580.1348,989.58295,581.86017,989.9484Q582.7216,990.134,583.54974,990.4L584.36847,990.689Q586.1496,991.41736,587.1253,992.1041Q588.2767,992.86395,589.31366,993.7731Q589.9117,994.2104,592.14044,996.5824L595.4572,1000.3908Q595.9854,1000.95245,596.3671,1001.073Q597.4731,1001.3503,596.50653,996.0107"/> </g> <g style="fill:rgb(255,255,255); fill-opacity:1.0; stroke-linejoin: miter"> <path d="M547.1224,745.73846L556.3705,717.3374L565.61865,745.7394L595.34143,745.7416L571.2803,763.2892L580.4331,791.6875L556.3704,774.13873L532.3059,791.68915L541.46014,763.28827L517.39343,745.73694 Z"/> </g> </g> </svg>