<?xml version="1.0" encoding="UTF-8"?>
<svg viewBox="0 0 744.09448819 1052.3622047" xmlns="http://www.w3.org/2000/svg">
 <g transform="matrix(3.726 0 0 3.726 -46.797 -1462.8)">
  <path d="m94.786 616.95s-57.809-6.3031-59.653-2.5954c-1.845 3.7077 1.5377 19.29 6.765 22.256s50.121 14.465 50.121 14.465l64.881-23.739s-11.992-16.689-9.84-23.368c2.1528-6.6738-48.583 10.386-52.274 12.982z" fill="#26231f"/>
  <path d="m91.774 416.67s-18.196-6.8972-19.408-6.2704c0 0-0.63498-1.0401-1.0396-1.2547-1.4278-0.75191-4.6256-1.2863-7.9718 1.359-0.28567 0.22592-0.58526 1.3921-0.86621 1.6719l-12.304 10.243 3.4659 21.842 11.351-2.1944s9.0109-1.2533 9.9637-1.4629 17.849 1.6724 17.849 1.6724l-1.0393-25.606z" fill="#26231f"/>
  <path d="m50.733 448.85s36.367-6.4775 36.92-5.7429 23.691 12.954 23.691 12.954-3.2658 6.5424-1.2177 10.014l-19.318-4.3394s-38.415 7.1444-39.744 6.5433-9.2436-16.157-0.33183-19.429z" fill="#26231f"/>
  <path d="m92.748 464.75s1.6276 9.8164-2.7128 11.78c0 0 26.855 9.4881 27.397 7.1972s2.4414-10.142 0-11.124c-2.0548-0.82557-16.406-6.5186-22.355-7.7159-1.1201-0.22493-1.9427-0.29216-2.3289-0.13693z" fill="#26231f"/>
  <path d="m102.24 476.86 31.195 11.778s-3.798 8.5063-2.7128 11.779-27.668-4.5802-28.21-5.5621 1.3562-3.5989 1.3562-3.5989-4.069-15.705-2.4414-15.051l0.8138 0.65404z" fill="#26231f"/>
  <path d="m56.128 501.72s4.3404 16.031-0.2715 19.631c0 0 39.875 1.3091 42.859-6.5437s4.6114-17.669-4.8823-17.014c-9.4941 0.65452-37.705 3.9272-37.705 3.9272z" fill="#26231f"/>
  <path d="m32.528 567.49s6.5103 25.194 0.2715 31.082 57.506 8.5079 61.033 5.5615c3.5262-2.9414 6.7813-34.353 1.8985-37.298s-63.203 0.65404-63.203 0.65404z" fill="#26231f"/>
  <path d="m30.901 561.6s66.186-0.65404 68.085 0.32676 45.843-11.125 49.911-7.1978c6.4557 6.2304 5.696 32.393 0.27162 36.971-11.942 10.085-46.385 21.598-49.369 21.925s-69.175-2.6596-70.899-6.822c-0.8141-1.9626-0.16938-10.194 2.8143-10.52 3.553-0.39051 56.134 8.1223 59.405 4.9089 7.3237-7.1978 4.6114-30.101 0.54279-31.411s-59.446 0.72671-61.576-0.9828c-0.81326-0.65397-2.1696-6.217 0.8141-7.1973z" fill="#26231f"/>
  <path d="m100.34 520.37s-67.001 7.1988-69.442 12.76-1.0848 27.157 2.7126 28.139 65.372 0.65408 65.372 0.65408 39.604-3.9257 40.417-7.1978-1.628-2.6176-3.2552-4.2539-1.6271-17.668 0.81429-18.977 2.4409-6.2165 0.54233-6.5433-37.162-4.5807-37.162-4.5807z" fill="#26231f"/>
  <path d="m37.14 537.39s-1.8989 17.014 0.81327 18.323 59.948 3.5994 60.49-0.65455 1.628-25.521-1.0848-25.848-55.879 4.9084-60.218 8.1796z" fill="#26231f"/>
  <path d="m97.358 529.21 36.632 4.1002s0.25816 16.84 2.1572 17.167c0 0-36.348 5.2357-37.705 4.5811-1.3562-0.65547-3.5257-24.539-1.0848-25.848z" fill="#26231f"/>
  <path d="m54.772 497.14s46.113-6.5443 47.741-2.2903 4.6e-4 24.213-2.1696 25.521-45.3 7.5255-46.657 6.5442-1.3559-4.9083 0-6.2174 39.57-4.5298 41.502-5.8887c3.2548-2.2908 4.069-13.088 1.3562-14.07s-40.417 4.2539-42.316 1.9641-1.6274-5.2342 0.5426-5.5625z" fill="#26231f"/>
  <path d="m101.16 494.53s31.195 4.2529 32.008 8.5069-1.3562 20.613-3.5266 20.94-29.566-2.9448-31.194-3.2722 4.3404-24.211 2.7128-26.175z" fill="#26231f"/>
  <path d="m101.43 476.2s-60.49 4.908-61.575 9.1609 1.3563 14.397 2.9836 14.724 59.676-2.6176 60.762-4.5807 0.27093-4.2534 0.27093-4.2534-58.32 4.908-58.863 2.2904-0.54216-4.9085 0.5426-4.9085c1.0852 0 55.065-5.562 56.422-6.8705s2.4409-6.216-0.5429-5.562z" fill="#26231f"/>
  <path d="m101.97 481.77s-55.538 4.3177-57.437 6.6085-0.06938 5.8245 2.1006 6.8052 57.235-3.9251 57.235-3.9251l26.583 7.8523s0-5.8887 1.0852-6.2165c1.0848-0.32826-28.21-12.76-29.567-11.124z" fill="#26231f"/>
  <path d="m47.135 472.15c2.441 0 47.286-10.397 47.942-7.2616 0.65489 3.1362-0.70127 13.278-1.515 13.278s-45.571 5.562-46.114 4.2539c-0.40337-0.9744-0.37839-1.6289 0.18575-2.3917 0.30946-0.41975 0.89301-0.30258 1.171-0.55372 1.0848-0.98176 0.37883-4.7883 0.37883-4.7883s-1.5472 0.44588-2.4911 0.0672c-0.33227-0.13293-0.3215-2.6042 0.44264-2.6042z" fill="#26231f"/>
  <path d="m48.804 474.57s43.672-7.5256 43.943-5.5625-1.6276 7.8528-1.6276 7.8528l-42.316 2.6171s0.81322-4.5797 0-4.9075z" fill="#26231f"/>
  <path d="m50.432 450.35c4.2568-4.2288 32.09-5.3895 36.771-6.5725 4.4432 3.2741 22.761 12.501 23.72 12.789 1.0848 0.32722 1.0848-0.98176 1.3562-2.2908s-21.857-13.913-21.857-13.913c-1.2185-0.86759-1.9379-1.268-2.7962-1.7026-5.6163 0.65453-39.791 4.733-41.533 7.4361-1.8989 2.9444-5.426 24.213 3.5258 26.502 0 0 33.574-5.4167 41.479-7.3175 0.0079 0.0406 0.01462 0.0881 0.02337 0.12016 0.27105 0.9813 19.531 4.5802 19.531 4.5802s1.0851 0 0.81326-2.6176-18.988-7.1983-18.988-7.1983c-0.2379-0.17299-0.44047-0.14433-0.61484 9e-3 -5.2627 0.39397-38.003 6.8106-39.802 5.8803-1.8985-0.98234-6.2389-11.125-1.6274-15.706z" fill="#26231f"/>
  <path d="m97.861 618.8s2.7676-4.8249 0.61472-6.308-64.881-7.0495-65.804-5.1907c-0.92235 1.8538-11.751 26.596-1.911 33.27 9.8397 6.6787 57.503 20.338 61.839 18.593 1.8452-0.74155-1.504-12.176-1.504-12.176s-48.978-9.9612-51.352-15.211c-1.8445-4.0785-3.6896-17.802 0.92272-17.802s56.578 7.0495 57.194 4.8249z" fill="#26231f"/>
  <path d="m93.055 659.68s65.691-24.925 66.613-31.604c0.92237-6.6738-2.4599-7.0495-2.1523-7.0495 2.3416 0-66.726 19.661-67.649 26.705-0.9228 7.0495 1.3429 11.949 3.1877 11.949z" fill="#26231f"/>
  <path d="m97.862 618.8s54.733-15.211 55.349-18.177c0.61473-2.9661 1.2296-11.128-1.538-10.757s-53.503 17.431-54.426 19.66c-0.92236 2.2246-2.1528 9.6448 0.6152 9.2741z" fill="#26231f"/>
  <path d="m31.104 563.48s-1.623 2.5444 0.3241 3.2716 61.992-1.091 63.615 2.1821 7.5528 24.289-0.97347 32.357-61.27-2.724-61.27-2.724-1.3718 5.2699 0.25129 5.9966 62.966 5.8185 65.562 4.3652c2.5962-1.4584 8.7632-30.907 1.9471-42.54-2.9846-5.0953-69.457-2.9083-69.457-2.9083z" fill="#e20415"/>
  <path d="m104.13 565.3s8.3855 30.327-3.5707 43.264c0 0 47.478-16.872 48.205-19.275s5.422-23.898-0.74501-30.442c-2.5376-2.6928-39.021 8.271-43.889 6.4528z" fill="#ae0915"/>
  <path d="m96.017 612.2s2.0826 5.1215-1.2308 4.7409-53.945-6.1992-56.542-4.0142c-4.6571 3.9103-4.5054 15.483-2.644 19.31 1.9476 3.9993 53.925 17.045 53.925 17.045v5.8185s-53.228-15.636-55.5-18.543-2.5966-24.723 0.64906-27.63 61.343 3.2726 61.343 3.2726z" fill="#078cc9"/>
  <path d="m96.666 522.76s1.2984 3.9998-0.64879 4.3627-56.475 4.7265-59.071 8.7264-3.2457 20.359-0.32454 21.45 62.641 0.72717 62.641 0.72717 2.0437 3.7923-0.27669 3.8955-60.741-0.26-63.987-1.7139-3.5706-21.814-1.9476-25.45 61.992-12.725 63.615-11.998z" fill="#ee7500"/>
  <path d="m99.263 524.22s-1.9476 3.2716 0 3.2716 35.702 5.0899 36.675 3.2721 0.3248-3.636 0.3248-3.636-36.676-4.3627-37-2.9078z" fill="#d2650c"/>
  <path d="m102.18 558.03s4.4e-4 5.0899 1.6232 4.3627 33.755-7.2715 33.755-7.2715l-1.6232-1.8177s-32.781 3.6355-33.755 4.7265z" fill="#d2650c"/>
  <path d="m102.98 499.64s4.6895 16.914-2.606 20.432c0 0 25.18 2.235 26.802 0.41722s3.7221-15.012 3.7221-15.012-24.348-4.7473-27.918-5.8378z" fill="#007429"/>
  <path d="m101.9 493.77s0.4087 2.0576-1.2242 2.0576-55.916 3.6577-57.549 2.7432-3.8775-10.972-2.245-12.344 61.018-8.2295 61.222-7.0871-0.6122 1.1434-0.6122 1.1434-59.59 6.6293-59.386 8.0006 0.40813 8.4589 1.8368 8.6874 57.957-3.201 57.957-3.201z" fill="#6b1f7c"/>
  <path d="m103.94 479.14 0.40822 1.3723s24.897 10.515 25.917 9.8293 1.0204-1.3718 1.0204-1.3718-27.142-10.972-27.346-9.8298z" fill="#6b1f7c"/>
  <path d="m103.94 493.31s-1.5053 1.8825-0.34467 2.1979 24.834 5.1176 24.834 5.1176l-0.81649-1.143s-23.264-7.0866-23.672-6.1725z" fill="#6b1f7c"/>
  <path d="m95.124 469.64s0.25596 5.4557-1.538 7.179c0 0 20.507 4.5945 22.045 4.5945 2.4184 0 0.76872-6.3183 0.76872-6.3183s-20.507-6.3164-21.276-5.4552z" fill="#7e7416"/>
  <path d="m48.213 472.8s38.451-3.4462 43.321-4.8818c0.74409-0.21899-1.538-1.4356-1.538-1.4356l-41.783 6.3174z" fill="#7e7416"/>
  <path d="m49.239 480.26s33.58-2.01 33.324-1.1489l-32.555 2.8717-0.76887-1.7228z" fill="#7e7416"/>
  <path d="m87.689 440.92s0 1.7228-1.538 1.7228-32.643 3.2133-35.419 6.2012-5.5954 12.463 0.30036 18.493l39.775-5.6074-0.29925 2.1617s-40.08 6.7851-41.526 5.743c-7.1775-5.169-1.5382-22.684-1.5382-22.684l40.245-6.0301z" fill="#c35f10"/>
  <path d="m89.483 441.5-0.51281 2.01s21.02 12.347 21.276 11.199-20.506-14.358-20.763-13.209z" fill="#c35f10"/>
  <path d="m92.56 462.46s-1.4197 1.4232 0.18756 2.2908 16.474 4.3132 16.474 4.3132-15.893-7.4652-16.662-6.6041z" fill="#c35f10"/>
  <path d="m50.777 475.09s0.25597 2.585-0.25689 3.4462 36.438-0.57345 39.989-2.8712 1.5385-4.3073 1.5385-4.3073-39.476 2.584-41.27 3.7324z" fill="#80827f"/>
  <path d="m109.31 505.47s0.74451 8.3398-1.489 11.258c0 0 1.489 1.2507 2.2335 0s0.37203-9.1738-0.74451-11.258z" fill="#38a825"/>
  <path d="m111.91 505.47s0.7445 8.3398-1.489 11.258c0 0 1.489 1.2507 2.2335 0s0.37248-9.1738-0.7445-11.258z" fill="#38a825"/>
  <path d="m115.63 506.31s0.7445 8.3398-1.489 11.258c0 0 1.489 1.2512 2.2335 0s0.37247-9.1732-0.7445-11.258z" fill="#38a825"/>
  <path d="m34.674 570.03s10.386 15.997 3.2457 25.449c0 0 45.763 8.3645 51.605 4.726 5.8427-3.6334 7.1238-24.382 3.2459-29.449-1.9475-2.5425-58.097-0.7267-58.097-0.7267z" fill="#fefbde"/>
  <path d="m99.255 615.14s-2.2648 1.058-0.31774 1.058 52.904-14.539 52.904-16.724c0-2.1801-1.9603-2.2642-1.9603-2.2642s-50.438 16.042-50.626 17.93z" fill="#078cc9"/>
  <path d="m93.299 652.25s-2.4754 3.5791-0.85307 2.8525 63.48-25.593 64.589-26.176c1.1081-0.58828 1.6227-5.0918-0.3248-4.3652s-46.859 24.416-63.411 27.689z" fill="#078cc9"/>
  <path d="m95.368 620.93s-4.8691 12.725-3.2459 24.357c0 0-50.552-9.9218-52.377-13.506-1.8247-3.5841-2.4738-15.577 0.44693-16.309s55.176 5.4577 55.176 5.4577z" fill="#fefbde"/>
  <path d="m98.613 621.29s-6.4914 9.0911-4.2195 22.903l57.773-20.358s-9.0881-10.179-6.8163-18.177l-46.737 15.632z" fill="#d9b68b"/>
  <path d="m96.342 529.67s-3.2605 18.772 2.102 25.383c0 0-60.199 1.5206-61.173-1.0242s-1.6231-14.906 2.2717-16.361 56.799-7.9977 56.799-7.9977z" fill="#e0dcbf"/>
  <path d="m98.456 532.81s-3.7375 16.86 3.403 21.95c10.711-2.9088 32.457-3.9993 32.457-3.9993s-3.4065-13.396-0.48547-15.94c2.9211-2.5454-35.374-2.01-35.374-2.01z" fill="#b1936c"/>
  <path d="m55.121 499.86 1.0063 1.8642s40.863-1.1375 41.512-2.5919l0.64879-1.4539s-42.842 0.72769-43.167 2.1816z" fill="#009935"/>
  <path d="m55.121 522.76s0.32494 1.8177 1.9476 1.8177 38.623-2.9078 39.272-4.3622 1.2984-2.9093-1.6227-1.4549-38.623 2.1816-39.597 3.9993z" fill="#009935"/>
  <path d="m58.368 503.86s4.2188 11.27 0.97355 14.906c0 0 36.027-0.36381 38.299-2.9082s3.5699-13.816 0.64879-13.816-39.921 1.8187-39.921 1.8187z" fill="#fefbde"/>
  <path d="m102.31 481.88s-3.2649 6.8577-1.02 9.3725c0 0-55.508 5.4858-56.529 4.1145s-1.8369-5.4853-0.20389-5.7142 57.753-7.7727 57.753-7.7727z" fill="#fefbde"/>
  <path d="m103.72 484.63s-3.862 1.8247-1.0049 6.8542c8.7752 2.7432 26.121 7.5438 26.121 7.5438s-0.81602-4.5713 1.8368-6.4009l-26.953-7.9972z" fill="#d9b68b"/>
  <path d="m87.177 445.23s0 10.912 2.5633 13.783c0 0-36.4 6.604-37.938 5.168s-3.0754-11.198 0.25689-13.208 35.118-5.7429 35.118-5.7429z" fill="#f0e7af"/>
  <path d="m89.227 446.67c0 0.86117-1.0252 9.1876 2.5636 12.634s16.662 7.1789 16.662 7.1789-2.0508-9.189 0.76884-10.337-19.995-9.4753-19.995-9.4753z" fill="#b2946d"/>
  <path d="m73.591 413.68 5.1268 26.991 8.9072-1.1099 3.9097 1.3971-1.0256-22.11s-15.636-6.6046-16.918-5.169z" fill="#e20224"/>
  <path d="m64.876 413.1s3.5884 28.715 5.1264 28.715 6.4084-1.436 6.4084-1.436-5.3832-27.566-5.8956-28.427c0 0-5.1268-0.28771-5.6392 1.1479z" fill="#e63542"/>
  <path d="m51.546 423.7s10.766-9.7625 11.279-8.6146l3.5883 25.843-10.766 2.0105-4.1012-19.239z" fill="#e1033c"/>
  <path d="m77.692 421.14c-0.10856 0.85375-0.51237 1.1489 1.0256 1.4361s9.4844 0.86167 9.4844 0.86167l0.51242-0.28772s-10.766-4.0196-11.022-2.01z" fill="#fec500"/>
  <path d="m78.205 424.59c-0.10901 0.85276-0.51282 1.1484 1.0256 1.4356s9.4844 0.86118 9.4844 0.86118l0.51233-0.28722s-10.766-4.0201-11.022-2.0096z" fill="#fec500"/>
  <path d="m78.205 428.32c-0.10901 0.85326-0.51282 1.1494 1.0256 1.4361s9.4844 0.86118 9.4844 0.86118l0.51233-0.28722s-10.766-4.0201-11.022-2.0101z" fill="#fec500"/>
  <path d="m66.926 419.71s-1.2816 1.7228 0.51237 2.0101 3.5888-1.1489 3.5888-1.1489l-1.0252-1.7223s-2.5636-0.86166-3.076 0.86116z" fill="#fec500"/>
  <path d="m83.07553,447.81411c-.0014.1488-.78518.24273-2.01992.51265-1.23796.25756-2.92027.7445-4.79942,1.30954s-3.625,1.00255-4.91851,1.139c-1.29263.1493-2.10069.043-2.10466-.0895-.0057-.14683.77187-.29364 2.00006-.61745 1.23085-.31145 2.90742-.84485 4.79274-1.41188 1.88312-.56751 3.6484-.95954 4.94852-1.04061 1.30103-.0939 2.10417.0677 2.10118.19823z" fill="#26231f"/>
  <path d="m84.3571,452.40889c-.0053.27931-2.40255.49139-5.3541.85425-2.95332.35099-5.37264.58086-5.41191.29414-.03795-.26597 2.32443-.9457 5.3179-1.30263 2.99568-.36829 5.45605-.12606 5.44811.15424z" fill="#26231f"/>
  <path d="m100.2499,486.00536c0,.14139-1.15452.26102-3.01653.37966s-4.43128.24768-7.25791.4815-5.37351.55615-7.21602.83101-2.98642.45927-3.01643.31739c-.0278-.13003 1.07108-.56802 2.90565-1.02382s4.40438-.90269 7.25973-1.13553c2.85538-.2363 5.44548-.24866 7.31624-.18687s3.02527.19824 3.02527.33666z" fill="#26231f"/>
  <path d="m73.59101,506.39223c-.0017.14484-.77401.25212-2.00703.47557l-4.83824.90664c-1.90182.33913-3.66022.54825-4.94839.50078-1.29121-.0311-2.07173-.31638-2.04843-.44738 .02154-.14485.79124-.11866 2.02473-.26894 1.23428-.13347 2.93451-.44788 4.83122-.78602s3.64186-.58334 4.91903-.61794c1.27813-.045 2.06975.10332 2.06711.23729z" fill="#26231f"/>
  <path d="m64.87587,509.55069c.04351.28228-.98308.67776-2.24584.94818-1.26408.25855-2.26649.44788-2.36865.20021-.10945-.263.87876-.92741 2.19323-1.19485 1.30675-.27981 2.37903-.22246 2.42127.0465z" fill="#26231f"/>
  <path d="m95.89229,538.8395c-.00046.14732-1.13645.2457-2.95472.48694-1.82046.2284-4.31963.65552-7.10213,1.11131s-5.33865.74104-7.19793.74054c-1.86061.0134-3.0023-.19822-2.99568-.32973 .0057-.1483 1.14346-.19131 2.96347-.38559 1.82221-.18192 4.32318-.57197 7.10217-1.02876 2.77857-.4548 5.32712-.77515 7.18383-.8226 1.85614-.0598 3.00271.0949 3.00099.22789z" fill="#26231f"/>
  <path d="m94.6107,544.00745c-.0503.13841-.74363-.091-1.87384-.17698-1.13153-.10085-2.69999.0222-4.45469.29611s-3.37831.51116-4.57296.50227c-1.19554.005-1.92724-.19922-1.91533-.33418 .01015-.14386.72906-.19577 1.87031-.38066 1.14478-.17105 2.71413-.51759 4.4997-.79245 1.78205-.2798 3.47231-.29859 4.66167-.00049 1.19515.28376 1.83462.76971 1.78513.88638z" fill="#26231f"/>
  <path d="m96.91736,547.7402c-.0018.14287-.57195.25756-1.48371.42366-.91398.15918-2.17484.394-3.60427.54775-1.42811.15523-2.76045.12754-3.70488-.0682-.94796-.18736-1.49034-.48843-1.46077-.61646 .03045-.14238.60682-.0959 1.51726-.0974 .91176.007 2.1629-.0751 3.56498-.2274s2.69515-.27536 3.64178-.25311c.94707.0148 1.53137.15423 1.52961.29117z" fill="#26231f"/>
  <path d="m63.08122,579.89821c-.02544.14831-1.46574-.0692-3.80217-.18786-2.33666-.13842-5.57072-.10876-9.16513-.0939-3.5926.0198-6.87493-.14336-9.22199-.58335-2.35145-.41525-3.73529-1.01837-3.70127-1.14195 .03535-.14831 1.45455.20268 3.78013.43009 2.32465.25212 5.55397.30155 9.14313.28178 3.5874-.0148 6.86162.0692 9.21739.39054 2.35818.30649 3.77443.77614 3.74991.90467z" fill="#26231f"/>
  <path d="m57.18547,585.64301c-.0328.14337-.92974-.01-2.37476-.14336-1.44502-.14336-3.44392-.21257-5.66778-.17302-2.22337.0346-4.25115.10382-5.72379.0544-1.47308-.0396-2.3837-.17303-2.38286-.31145s.90418-.262 2.36393-.40537c1.45883-.13347 3.4784-.31638 5.73112-.35099 2.25183-.0445 4.30894.14336 5.76777.47458 1.46228.32133 2.31686.72671 2.28636.85523z" fill="#26231f"/>
  <path d="m54.10967,593.39441c-.0053.13843-.85769.23235-2.2287.14337-1.37132-.084-3.2465-.39055-5.28415-.81075s-3.8676-.81568-5.19928-1.0678c-1.33001-.26201-2.16137-.41526-2.15532-.55862 .0043-.13842.8559-.23235 2.2273-.15325 1.37091.0742 3.24912.36088 5.28891.78108l5.19839,1.09746c1.32831.26695 2.15838.42515 2.15285.56851z" fill="#26231f"/>
  <path d="m64.61933,623.83176c.00044-.13842 1.65367-.26695 4.32856-.37571 2.6744-.0989 6.37399-.19774 10.46728-.0791 4.09232.10876 7.79631.48447 10.45178.93928 .71359.14831 1.25776.34604 1.78029.48447 .5101.1483.94965.25706 1.3107.32133 .72245.14337 1.12091.0742 1.1399.1483 .02256.0593-.39719.2719-1.17167.24718-.38488-.01-.84963-.0643-1.38045-.1582-.52127-.084-1.1475-.25211-1.75474-.33121-2.65536-.2719-6.32942-.52896-10.40011-.63772l-10.43991-.21751c-2.67581-.0742-4.33209-.20269-4.33165-.34111z" fill="#26231f"/>
  <path d="m76.1547,628.14286c.01059-.13842.91221-.18291 2.35311-.01 1.44047.1582 3.4039.56357 5.54167,1.07276s4.06192.9541 5.4662,1.22599c1.40209.28179 2.28072.43504 2.27543.5784-.0044.13347-.90384.23729-2.3522.13347-1.44801-.0939-3.42953-.43503-5.57523-.94421s-4.06324-1.02331-5.45825-1.35948c-1.39325-.35099-2.26265-.55368-2.25074-.69704z" fill="#26231f"/>
  <path d="m75.1291,633.30903c.07017-.27684 3.52791.61794 7.82328,1.45834 2.14703.42515 4.09681.74648 5.51294.95411s2.29937.31638 2.30017.45975c.0022.13347-.89452.28178-2.34736.25212-1.451-.0247-3.44935-.23235-5.62242-.66738-4.35186-.85028-7.73678-2.19493-7.66661-2.45694z" fill="#26231f"/>
  <path d="m123.58 631.59c0.0393 0.3065-6.1343 1.3298-13.571 3.4061-7.4459 2.0516-13.245 4.6123-13.344 4.3454-0.10503-0.24224 5.603-3.2578 13.124-5.3292 7.509-2.0961 13.769-2.6745 13.791-2.4223z" fill="#26231f"/>
  <path d="m140.75 620.1c0.0539 0.10876-1.9475 1.4831-5.4331 3.1144-3.4776 1.6561-8.4583 3.4407-14.037 4.9782-5.5778 1.5473-10.657 2.7338-14.312 3.6879-3.6594 0.92939-5.9124 1.5671-5.9494 1.4287-0.0353-0.12857 2.1616-1.0085 5.7932-2.1257 3.6272-1.1321 8.6931-2.4372 14.249-3.9746 5.5589-1.5325 10.516-3.1935 14.023-4.6618 3.512-1.4484 5.6043-2.5855 5.6669-2.447z" fill="#26231f"/>
  <path d="m110.5 576.45s2.5636 10.624 0.25641 17.228c0 0 33.836-8.3249 35.374-11.771s2.5636-8.6117 0.25643-10.337-33.581 2.012-35.887 4.8793z" fill="#e20415"/>
  <path d="m115.26 578.87s-2.606 10.006 0 10.006 5.2116-2.0862 5.2116-2.0862l-0.37203-8.3398s-2.606-1.666-4.8395 0.4202z" fill="#ee7a00"/>
  <path d="m124.57 577.19s-2.606 10.011 0 10.011 5.2116-2.0862 5.2116-2.0862l-0.37247-8.3398s-2.6056-1.666-4.8391 0.41525z" fill="#ee7a00"/>
  <path d="m134.25 574.69s-2.6056 10.011 0 10.011 5.2116-2.0862 5.2116-2.0862l-0.37204-8.3398s-2.606-1.6709-4.8395 0.41526z" fill="#ee7a00"/>
  <path d="m126.59 502.59s-24.341-30.426-29.383-32.913c-2.1007-1.0362-3.4396 0.5423-2.6929 2.2162s22.042 37.778 25.03 38.336 9.5356-7.0802 7.0458-7.6393z" fill="#26231f"/>
  <path d="m98.757 471.03s4.7526-7.088 4.1533-8.2858-3.2738 0.85574-3.9159-0.17302-3.6042-8.9874-4.7473-7.6976-1.0808 4.9584-2.0927 3.4466-2.692-3.3058-3.1431-2.1643 1.1607 3.8906-0.20477 3.46-1.9224-1.8395-1.8094-0.33617 1.019 3.289-4.5e-4 2.7842c-1.019-0.50573-1.6541 0.18439-1.6391 1.53 0.0587 5.2244 8.9045 9.4699 9.8035 9.4798s3.685-1.0985 3.5958-2.0437z" fill="#26231f"/>
  <path d="m97.901 473.52s-0.79571-3.6567-0.10107-4.2994 5.1136-6.2101 4.3011-5.8037-4.4282 2.7802-4.7349 2.3516-2.7892-10.562-2.6987-9.2736 0.7604 7.8004 0.35305 7.5384-4.9454-6.9323-4.7623-6.0128 3.8876 6.6654 2.8165 6.9239-4.4975-4.0053-4.2918-3.4101c0.20477 0.59471 3.0575 4.0809 2.3853 4.3993s-3.6307-2.273-3.0398-1.092 5.0536 5.5798 6.3078 6.2412 3.5451 4.1525 3.5451 4.1525-0.34466-1.136-0.08031-1.7154z" fill="#f4b891"/>
  <path d="m114.89 459.36s28.138 56.343 33.865 54.67 8.4655-3.9049 8.4655-3.9049-39.591-51.601-40.338-51.601-1.7432-1.1153-1.9921 0.83596z" fill="#26231f"/>
  <path d="m129.33 476.23s-10.314-14.983-10.878-14.983-1.8531-0.90269-1.8531-0.90269 8.6216 18.323 10.072 18.323 2.659-2.4371 2.659-2.4371z" fill="#f4b891"/>
  <path d="m170.66 596.03c1.9524-6.2783 23.753-4.0587 22.593-1.5374s-24.546 7.8108-22.593 1.5374z" fill="#26231f"/>
  <path d="m172.9 595.14c1.5693-4.6766 19.094-3.0205 18.162-1.1469-0.93158 1.8786-19.731 5.8235-18.162 1.1469z" fill="#0d276a"/>
  <path d="m145.34 602.52c5.6485-12.443 20.799-6.6343 20.799-6.6343s0.57594 3.6731-6.1132 6.5996c-4.8968 2.1405-16.487 4.0043-14.686 0.0347z" fill="#26231f"/>
  <path d="m148.4 601.49c3.4454-7.5883 12.686-4.0488 12.686-4.0488s0.35139 2.2394-3.7287 4.024c-2.9864 1.31-10.056 2.4421-8.9575 0.0247z" fill="#0d2871"/>
  <path d="m145.14 548.36c-0.81291 1.3012 1.5605 10.889 5.6886 11.275s16.856 0.77125 16.512-3.0827 1.8805-13.652-1.2154-12.496-18.577 0.45086-20.985 4.3038z" fill="#26231f"/>
  <path d="m134.83 482.36c0.39675 1.1064 1.7286 2.5336 2.7282 2.6097l-2.7282-2.6097z" fill="#26231f"/>
  <path d="m137.55698,484.96851c-.0194-.32232-.61696-.63771-1.32352-1.33229-.69022-.71928-1.14964-1.37282-1.40472-1.2784-.22066.0667-.003,1.19931.83012,2.05652 .85087.86759 1.93608.83249 1.89812.55417z" fill="#26231f"/>
  <path d="m136.48 481.66c0.0433 1.2191 0.88176 2.6221 1.7692 3.2217l-1.7692-3.2217z" fill="#26231f"/>
  <path d="m138.25 484.88c0.11563-0.2808-0.35394-0.85821-0.83365-1.6596-0.44441-0.8236-0.66419-1.5454-0.93516-1.5607-0.22242-0.0361-0.36894 1.0846 0.20522 2.1326 0.60019 1.0124 1.4802 1.3323 1.5636 1.0876z" fill="#26231f"/>
  <path d="m137.52 481.59c-0.29215 1.0599 0.20213 2.4421 0.974 3.0334l-0.974-3.0334z" fill="#26231f"/>
  <path d="m138.49747,484.62572c.12753-.28276-.20919-.8043-.4784-1.53052-.22331-.74252-.24228-1.37282-.49472-1.50283-.19021-.13694-.6558.79294-.31907,1.88447 .38351,1.052 1.20922,1.39063 1.29219,1.14888z" fill="#26231f"/>
  <path d="m136.62 484.91c-0.0525 0.88934 0.5821 1.6541 1.4175 1.71 0.83453 0.0544 1.5534-0.62189 1.6068-1.5112s-0.58343-1.6511-1.418-1.7075c-0.83542-0.0539-1.5556 0.62042-1.6064 1.5088z" fill="#26231f"/>
  <path d="m164.27 493.43s4.8828-2.8257 5.4997 1.3259c0 0 0.49074 7.7772-4.6904 7.7075-0.13593-9.2e-4 0.0613-1.0268 0.0613-1.0268s-0.17962-6.0074-0.87073-8.0066z" fill="#26231f"/>
  <path d="m164.67 494.82s4.0412-2.7303 4.4114 0.56703c0 0 0.87029 3.8842-3.8249 5.0454-0.13283 0.0326 0 0 0 0s0.56401-3.5089-0.58651-5.6124z" fill="#f09b75"/>
  <path d="m165.29 501.48c-2.252 8.9863-11.463 14.058-21.625 12.547-1.4202-0.21108-3.0715 0.93032-4.5121 0.45578-1.6452-0.54336-2.9952-2.7141-4.4565-3.5297-8.9698-5.0078-14.168-14.706-11.961-23.512 2.5676-10.239 14.175-15.397 25.926-11.52s19.196 15.318 16.629 25.559z" fill="#26231f"/>
  <path d="m163.78 500.66c-2.1179 8.453-10.682 13.26-20.108 11.883-1.3165-0.19428-2.7511 0.42459-4.088-0.0178-1.5248-0.50227-2.8707-2.0757-4.2243-2.8366-8.3104-4.6671-13.102-13.757-11.026-22.041 2.4145-9.632 13.203-14.529 24.096-10.934s17.768 14.315 15.351 23.947z" fill="#f4b891"/>
  <path d="m160.24 497.19c0.53622 3.4995-3.7098 6.8641-9.484 7.5128s-10.89-1.6542-11.426-5.1522 3.9313-5.3356 9.7046-5.9886 10.671 0.12952 11.205 3.6281z" fill="#f4b891"/>
  <path d="m160.17 497.18c0.53231 3.4738-3.6783 6.8132-9.4058 7.4568-5.7275 0.64661-10.801-1.6427-11.333-5.115s3.8973-5.3005 9.6234-5.9491 10.585 0.13447 11.116 3.6073z" fill="#f4b791"/>
  <path d="m160.09 497.17c0.52817 3.4466-3.6476 6.7618-9.3278 7.4s-10.713-1.6314-11.241-5.078 3.8642-5.2659 9.5431-5.9085 10.499 0.13891 11.026 3.5865z" fill="#f4b791"/>
  <path d="m160.02 497.16c0.52472 3.4219-3.6166 6.7123-9.2496 7.3451-5.633 0.63624-10.625-1.6205-11.149-5.0409-0.5265-3.4224 3.8306-5.2323 9.4624-5.87s10.413 0.14385 10.936 3.5658z" fill="#f4b690"/>
  <path d="m159.95 497.14c0.52069 3.3962-3.5849 6.6614-9.1716 7.2888s-10.536-1.6091-11.056-5.0044 3.7971-5.1972 9.382-5.8289c5.5854-0.6308 10.327 0.1483 10.846 3.5445z" fill="#f4b590"/>
  <path d="m159.88 497.13c0.51724 3.3715-3.5539 6.6115-9.093 7.2334-5.5386 0.6253-10.448-1.5973-10.964-4.9673s3.764-5.162 9.3017-5.7889 10.24 0.15325 10.755 3.5228z" fill="#f4b490"/>
  <path d="m159.8 497.12c0.51333 3.3453-3.5226 6.5601-9.0144 7.1775s-10.36-1.5864-10.872-4.9307c-0.51502-3.3453 3.7305-5.1274 9.2209-5.7488s10.155 0.1572 10.666 3.502z" fill="#f3b490"/>
  <path d="m159.73 497.11c0.50929 3.3191-3.4918 6.5097-8.9363 7.1212-5.445 0.61502-10.272-1.5755-10.78-4.8941s3.6969-5.0923 9.1406-5.7088c5.4437-0.61498 10.068 0.16264 10.576 3.4817z" fill="#f3b38f"/>
  <path d="m159.66 497.1c0.50538 3.2939-3.4603 6.4588-8.8582 7.0653s-10.183-1.5632-10.688-4.856c-0.50708-3.2934 3.6634-5.0582 9.0603-5.6698s9.9822 0.16758 10.486 3.4605z" fill="#f3b28e"/>
  <path d="m159.59 497.09c0.50123 3.2682-3.4296 6.4078-8.7801 7.0095s-10.095-1.5523-10.596-4.82 3.6299-5.0236 8.9796-5.6292c5.3496-0.6046 9.8961 0.17154 10.396 3.4397z" fill="#f2b18f"/>
  <path d="m159.51 497.07c0.49778 3.243-3.3986 6.3574-8.702 6.9541s-10.006-1.5404-10.503-4.7829 3.5968-4.9885 8.8992-5.5892 9.8101 0.17649 10.306 3.418z" fill="#f2b18d"/>
  <path d="m159.44 497.06c0.49341 3.2173-3.3672 6.307-8.6238 6.8977s-9.9178-1.5295-10.411-4.7458c-0.4956-3.2158 3.5628-4.9544 8.8185-5.5496 5.2552-0.59421 9.7236 0.18193 10.216 3.3977z" fill="#f3b08e"/>
  <path d="m159.37 497.05c0.48939 3.1916-3.3364 6.2556-8.5457 6.8414s-9.8295-1.5182-10.319-4.7082 3.5297-4.9198 8.7382-5.5106 9.6384 0.18637 10.127 3.3774z" fill="#f3af8e"/>
  <path d="m159.3 497.04c0.4864 3.1654-3.3046 6.2052-8.4671 6.7855s-9.7408-1.5068-10.226-4.6722c-0.48766-3.1649 3.4957-4.8847 8.6574-5.4696s9.5519 0.19132 10.036 3.3562z" fill="#f3ae8e"/>
  <path d="m159.22 497.03c0.48236 3.1392-3.2738 6.1532-8.3891 6.7292s-9.6526-1.4959-10.134-4.6346 3.4622-4.8506 8.5766-5.4305 9.4663 0.19577 9.9465 3.3359z" fill="#f3ae8d"/>
  <path d="m159.15 497.02c0.47845 3.1144-3.2423 6.1038-8.3105 6.6738s-9.5647-1.484-10.042-4.598 3.4291-4.815 8.4963-5.3899 9.3798 0.20021 9.8564 3.3142z" fill="#f2ac8d"/>
  <path d="m159.08 497.01c0.47442 3.0887-3.2115 6.0524-8.232 6.6174s-9.4769-1.4727-9.95-4.5604c-0.47618-3.0882 3.3951-4.7814 8.4151-5.3504s9.2942 0.20566 9.7669 3.2934z" fill="#f2ac8c"/>
  <path d="m159.01 496.99c0.47039 3.0635-3.1802 6.002-8.1543 6.5621s-9.3878-1.4618-9.8578-4.5238 3.362-4.7463 8.3352-5.3104 9.2077 0.20961 9.6768 3.2721z" fill="#f1ab8c"/>
  <path d="m158.94 496.98c0.46648 3.0368-3.1492 5.9506-8.0761 6.5057s-9.299-1.4504-9.7655-4.4868 3.3289-4.7117 8.2549-5.2703 9.1217 0.21405 9.5868 3.2514z" fill="#f1ab8c"/>
  <path d="m158.86 496.97c0.46245 3.0116-3.1184 5.9006-7.9981 6.4498s-9.2108-1.4391-9.6728-4.4502 3.2949-4.6766 8.1741-5.2303 9.0356 0.21999 9.4968 3.2306z" fill="#f2a98a"/>
  <path d="m158.79 496.96c0.459 2.9864-3.087 5.8497-7.9199 6.395s-9.1225-1.4282-9.5806-4.4131c-0.46074-2.9859 3.2614-4.6435 8.0938-5.1912s8.9491 0.22394 9.4067 3.2094z" fill="#f2a88b"/>
  <path d="m158.72 496.95c0.45497 2.9602-3.0558 5.7988-7.8414 6.3381s-9.0343-1.4163-9.4888-4.376c-0.45633-2.9597 3.2282-4.6079 8.0135-5.1507 4.7843-0.54132 8.8635 0.22839 9.3167 3.1886z" fill="#f2a88a"/>
  <path d="m158.64 496.94c0.45152 2.935-3.0244 5.7479-7.7632 6.2823-4.7384 0.53637-8.9456-1.4055-9.3962-4.339s3.1943-4.5728 7.9323-5.1106 8.7774 0.23382 9.2271 3.1673z" fill="#f2a78a"/>
  <path d="m158.57 496.92c0.44749 2.9088-2.993 5.6974-7.6852 6.2259s-8.8573-1.3936-9.3039-4.3019 3.1612-4.5382 7.852-5.0716 8.6914 0.23877 9.1372 3.1476z" fill="#f1a689"/>
  <path d="m158.5 496.91c0.44358 2.8836-2.9626 5.6465-7.6066 6.1705-4.6449 0.52599-8.7695-1.3817-9.2121-4.2653s3.1276-4.5041 7.7716-5.031 8.6049 0.24273 9.0471 3.1258z" fill="#f0a589"/>
  <path d="m158.43 496.9c0.43955 2.8579-2.9312 5.5961-7.5289 6.1147s-8.6803-1.3708-9.1194-4.2282 3.0941-4.4695 7.6909-4.991 8.5193 0.24767 8.9574 3.1045z" fill="#f0a48a"/>
  <path d="m158.36 496.89c0.43598 2.8326-2.9004 5.5452-7.4504 6.0588-4.5505 0.51561-8.5925-1.3595-9.0276-4.1906s3.0606-4.4349 7.6106-4.9515 8.4332 0.25212 8.8675 3.0833z" fill="#f0a488"/>
  <path d="m158.28 496.88c0.4316 2.807-2.869 5.4948-7.3722 6.003s-8.5042-1.3481-8.935-4.1546 3.027-4.3998 7.5294-4.9114 8.3476 0.25707 8.7778 3.063z" fill="#f0a388"/>
  <path d="m158.21 496.87c0.42758 2.7807-2.8381 5.4433-7.2946 5.9466-4.456 0.50523-8.4151-1.3367-8.8423-4.1175s2.9935-4.3652 7.4499-4.8714c4.4543-0.50474 8.2602 0.26151 8.687 3.0423z" fill="#f0a288"/>
  <path d="m158.14 496.85c0.42413 2.7546-2.8064 5.3929-7.2156 5.8907s-8.3273-1.3259-8.7505-4.0799c-0.42587-2.754 2.9599-4.3315 7.3687-4.8318s8.1751 0.26646 8.5974 3.021z" fill="#f0a187"/>
  <path d="m158.07 496.84c0.42067 2.7293-2.7754 5.342-7.1374 5.8349s-8.2386-1.314-8.6583-4.0428 2.9264-4.2964 7.288-4.7918 8.089 0.27091 8.5077 2.9998z" fill="#f0a187"/>
  <path d="m157.99 496.83c0.41665 2.7041-2.7441 5.2921-7.0594 5.78s-8.1503-1.3036-8.566-4.0072 2.8933-4.2608 7.2076-4.7517 8.003 0.27585 8.4178 2.979z" fill="#f09f87"/>
  <path d="m157.92 496.82c0.41308 2.6779-2.7128 5.2402-6.9808 5.7226s-8.062-1.2913-8.4738-3.9692 2.8598-4.2272 7.1273-4.7127c4.2667-0.48348 7.9168 0.28129 8.3272 2.9592z" fill="#ef9e86"/>
  <path d="m157.85 496.81c0.40859 2.6527-2.682 5.1902-6.9032 5.6673s-7.9733-1.2804-8.3816-3.9321 2.8262-4.1921 7.0466-4.6721 7.8308 0.28475 8.2382 2.937z" fill="#ef9c86"/>
  <path d="m157.78 496.79c0.40513 2.6265-2.6505 5.1388-6.8246 5.6109s-7.8851-1.269-8.2893-3.895c-0.40602-2.626 2.7931-4.158 6.9662-4.6326s7.7447 0.29019 8.1476 2.9167z" fill="#ef9c86"/>
  <path d="m157.7 496.78c0.40064 2.6018-2.6201 5.0894-6.747 5.556s-7.7968-1.2576-8.1971-3.8584 2.7596-4.1229 6.8855-4.5926 7.6587 0.29513 8.0586 2.895z" fill="#ef9b85"/>
  <path d="m157.63 496.77c0.39719 2.5756-2.5884 5.0375-6.6684 5.4992s-7.7085-1.2463-8.1048-3.8214c-0.39807-2.5736 2.726-4.0888 6.8052-4.5525s7.5726 0.29958 7.968 2.8747z" fill="#ef9b84"/>
  <path d="m157.56 496.76c0.39328 2.5494-2.557 4.9866-6.5902 5.4428s-7.6198-1.2349-8.0122-3.7848 2.6925-4.0532 6.7244-4.512 7.4862 0.30403 7.878 2.8539z" fill="#ef9b84"/>
  <path d="m157.49 496.75c0.38926 2.5242-2.5261 4.9361-6.5117 5.3875s-7.532-1.224-7.9208-3.7472 2.6594-4.0191 6.6445-4.4734c3.9838-0.45234 7.4 0.30946 7.788 2.8331z" fill="#ef9983"/>
  <path d="m157.41 496.74c0.3858 2.498-2.4943 4.8857-6.4335 5.3311s-7.4429-1.2126-7.8277-3.7106c-0.3866-2.497 2.6254-3.9845 6.5633-4.4329s7.314 0.31392 7.6979 2.8124z" fill="#ef9883"/>
  <path d="m157.34 496.73c0.38166 2.4723-2.4644 4.8348-6.3555 5.2753s-7.355-1.2008-7.7359-3.6736 2.5923-3.9499 6.483-4.3928 7.2279 0.31837 7.6084 2.7911z" fill="#ee9783"/>
  <path d="m157.27 496.71c0.3782 2.447-2.4325 4.7844-6.2769 5.2194s-7.2668-1.1894-7.6437-3.6365 2.5588-3.9153 6.4022-4.3528 7.1423 0.32331 7.5183 2.7699z" fill="#ee9783"/>
  <path d="m157.2 496.7c0.37417 2.4218-2.4012 4.7334-6.1993 5.1635s-7.1781-1.1776-7.5506-3.5994c-0.37512-2.4199 2.5248-3.8802 6.3215-4.3132s7.0558 0.32825 7.4283 2.7491z" fill="#ee9682"/>
  <path d="m157.12 496.69c0.37026 2.3961-2.3703 4.683-6.1206 5.1077-3.7499 0.42663-7.0898-1.1667-7.4592-3.5628-0.37071-2.3942 2.4917-3.8456 6.2411-4.2737s6.9702 0.33319 7.3387 2.7288z" fill="#ed9482"/>
  <path d="m157.05 496.68c0.36624 2.3694-2.339 4.6316-6.0426 5.0513s-7.0016-1.1558-7.3665-3.5257c-0.36718-2.369 2.4582-3.811 6.1604-4.2332s6.8841 0.33715 7.2487 2.7076z" fill="#ed9482"/>
  <path d="m156.98 496.67c0.36231 2.3442-2.3081 4.5812-5.9644 4.9959-3.6554 0.41626-6.9133-1.1444-7.2743-3.4892s2.4246-3.7764 6.0801-4.1931c3.6546-0.41625 6.7976 0.34209 7.1587 2.6863z" fill="#ee9482"/>
  <path d="m156.91 496.66c0.3584 2.319-2.2772 4.5303-5.8863 4.9401s-6.8246-1.1331-7.182-3.4521 2.3911-3.7418 5.9993-4.1536 6.712 0.34704 7.069 2.6656z" fill="#ee9282"/>
  <path d="m156.83 496.64c0.3553 2.2938-2.2454 4.4803-5.8078 4.8842-3.5614 0.40588-6.7363-1.1212-7.0898-3.4145-0.35526-2.2918 2.3575-3.7072 5.919-4.114s6.626 0.35149 6.9786 2.6443z" fill="#ed9182"/>
  <path d="m156.76 496.63c0.35139 2.2676-2.2145 4.4289-5.7296 4.8279-3.5142 0.40092-6.6476-1.1103-6.9976-3.3779s2.324-3.6726 5.8387-4.0735 6.5394 0.35643 6.8885 2.6236z" fill="#ed9181"/>
  <path d="m156.69 496.62c0.34724 2.2424-2.1832 4.3785-5.6512 4.7725-3.4674 0.39549-6.5598-1.0994-6.9058-3.3408s2.2909-3.638 5.7579-4.0339 6.4538 0.36088 6.799 2.6023z" fill="#ed9081"/>
  <path d="m156.62 496.61c0.34333 2.2162-2.1523 4.3271-5.5734 4.7161s-6.4711-1.0876-6.8131-3.3038c-0.34379-2.2142 2.2574-3.6038 5.6776-3.9944s6.3674 0.36582 6.709 2.582z" fill="#ed8e81"/>
  <path d="m156.54 496.6c0.33942 2.191-2.1209 4.2772-5.4948 4.6603-3.3735 0.38511-6.3828-1.0762-6.7213-3.2667s2.2238-3.5688 5.5973-3.9544c3.3721-0.38411 6.2813 0.37077 6.6189 2.5608z" fill="#ed8d80"/>
  <path d="m156.47 496.59c0.33538 2.1653-2.0901 4.2262-5.4168 4.6049s-6.2946-1.0653-6.6291-3.2301c-0.33585-2.1633 2.1903-3.5336 5.5169-3.9143 3.3245-0.37966 6.1948 0.37522 6.5289 2.5395z" fill="#ed8d80"/>
  <path d="m156.4 496.57c0.33147 2.1401-2.0587 4.1753-5.3386 4.5481-3.279 0.37522-6.2063-1.0535-6.5368-3.1925s2.1572-3.4995 5.4362-3.8742 6.1092 0.37966 6.4393 2.5187z" fill="#ed8c7f"/>
  <path d="m156.33 496.56c0.32745 2.1144-2.0279 4.1244-5.2606 4.4927s-6.1176-1.0426-6.4442-3.1564 2.1232-3.464 5.355-3.8342 6.0231 0.3851 6.3497 2.498z" fill="#ed8a7f"/>
  <path d="m156.26 496.55c0.32399 2.0877-1.9961 4.0735-5.182 4.4358s-6.0293-1.0312-6.3519-3.1184 2.0897-3.4308 5.2747-3.7952c3.1841-0.36335 5.9371 0.38906 6.2592 2.4777z" fill="#ed8a7e"/>
  <path d="m156.18 496.54c0.31997 2.0629-1.9652 4.0236-5.1039 4.3815s-5.9411-1.0198-6.2597-3.0823 2.0566-3.3952 5.1943-3.7546 5.851 0.3935 6.1693 2.4555z" fill="#eb897d"/>
  <path d="m156.11 496.53c0.3164 2.0372-1.9343 3.9726-5.0257 4.3251s-5.8528-1.008-6.1674-3.0452c-0.31643-2.0343 2.023-3.3611 5.1136-3.7146s5.765 0.39895 6.0796 2.4347z" fill="#eb877c"/>
  <path d="m156.04 496.51c0.31243 2.012-1.903 3.9217-4.9476 4.2692s-5.7641-0.99662-6.0752-3.0082 1.9895-3.326 5.0333-3.675 5.6789 0.4034 5.9896 2.4139z" fill="#eb877c"/>
  <path d="m155.97 496.5c0.30849 1.9858-1.8721 3.8713-4.8691 4.2134s-5.6763-0.98575-5.9834-2.9711c-0.30848-1.9838 1.9564-3.2914 4.9529-3.6355s5.5928 0.40785 5.8996 2.3932z" fill="#eb867b"/>
  <path d="m155.89 496.49c0.30452 1.9591-1.8407 3.8194-4.7914 4.1565s-5.5871-0.97437-5.8908-2.9345 1.9228-3.2568 4.8726-3.595 5.5064 0.41329 5.8095 2.3729z" fill="#ea847b"/>
  <path d="m155.82 496.48c0.30055 1.9344-1.8098 3.7694-4.7133 4.1012s-5.4988-0.963-5.7981-2.8969 1.8888-3.2227 4.7914-3.5554 5.4207 0.41724 5.72 2.3512z" fill="#ea837b"/>
  <path d="m155.75 496.47c0.29702 1.9087-1.7785 3.718-4.6343 4.0448s-5.411-0.95113-5.7067-2.8603 1.8558-3.1876 4.7111-3.5154c2.8545-0.32627 5.3351 0.42268 5.6299 2.3309z" fill="#ea837b"/>
  <path d="m155.68 496.46c0.29348 1.883-1.7472 3.6681-4.5562 3.9894s-5.3223-0.94076-5.614-2.8233 1.8218-3.1525 4.6303-3.4758 5.2486 0.42762 5.5399 2.3096z" fill="#ea8179"/>
  <path d="m155.6 496.45c0.28907 1.8573-1.7163 3.6167-4.4781 3.9326s-5.234-0.92839-5.5218-2.7857c-0.28951-1.8548 1.7882-3.1184 4.55-3.4358s5.1626 0.43157 5.4499 2.2889z" fill="#ea8078"/>
  <path d="m155.53 496.43c0.28553 1.8321-1.685 3.5663-4.4 3.8772-2.7141 0.31145-5.1458-0.91751-5.4296-2.7491-0.28553-1.8291 1.7551-3.0843 4.4697-3.3957s5.0761 0.43651 5.3598 2.2676z" fill="#ea8078"/>
  <path d="m155.46 496.42c0.28156 1.8064-1.6541 3.5154-4.3219 3.8214s-5.0575-0.90614-5.3373-2.7125c-0.28156-1.8029 1.7216-3.0487 4.3889-3.3557s4.9904 0.44146 5.2702 2.2468z" fill="#ea7e77"/>
  <path d="m155.39 496.41c0.27759 1.7797-1.6232 3.4649-4.2437 3.7655s-4.9688-0.89528-5.2451-2.675 1.688-3.0151 4.3082-3.3166 4.9044 0.44591 5.1807 2.2261z" fill="#ea7d78"/>
  <path d="m155.31 496.4c0.27407 1.7545-1.5914 3.414-4.1652 3.7096s-4.8801-0.88391-5.1529-2.6384 1.6545-2.9795 4.2278-3.2761 4.8183 0.45086 5.0902 2.2048z" fill="#e97c77"/>
  <path d="m155.24 496.39c0.26964 1.7293-1.561 3.3631-4.0875 3.6533s-4.7919-0.87204-5.0606-2.6013 1.6214-2.9454 4.1475-3.236c2.5248-0.29019 4.7318 0.4553 5.0006 2.184z" fill="#e97c77"/>
  <path d="m155.17 496.38c0.26611 1.7035-1.5292 3.3122-4.0085 3.5979s-4.704-0.86166-4.9684-2.5647c-0.26656-1.7006 1.5874-2.9108 4.0668-3.1965 2.4776-0.28475 4.6458 0.46024 4.9101 2.1633z" fill="#e97a76"/>
  <path d="m155.1 496.36c0.26215 1.6774-1.4983 3.2622-3.9308 3.542s-4.6153-0.85029-4.8762-2.5276c-0.26214-1.6749 1.5543-2.8762 3.9864-3.1564s4.5602 0.46519 4.8206 2.142z" fill="#e97a76"/>
  <path d="m155.02 496.35c0.25817 1.6521-1.467 3.2118-3.8523 3.4862-2.3844 0.27584-4.5271-0.83793-4.7839-2.4906s1.5208-2.8411 3.9057-3.1164c2.3836-0.27437 4.4737 0.46963 4.7305 2.1208z" fill="#e87975"/>
  <path d="m154.95 496.34c0.25552 1.6264-1.4356 3.1609-3.7737 3.4298s-4.4388-0.82655-4.6917-2.453c-0.25464-1.6245 1.4872-2.8074 3.8254-3.0769s4.3876 0.47409 4.64 2.1z" fill="#e87975"/>
  <path d="m154.88 496.33c0.25066 1.6007-1.4047 3.1095-3.6965 3.374s-4.3501-0.81567-4.599-2.4169 1.4537-2.7718 3.7446-3.0368 4.302 0.47952 4.5509 2.0798z" fill="#e87875"/>
  <path d="m154.81 496.32c0.24713 1.575-1.3734 3.0596-3.6175 3.3176s-4.2618-0.80381-4.5072-2.3793c-0.24626-1.572 1.4206-2.7372 3.6638-2.9968s4.2164 0.48397 4.4609 2.0585z" fill="#e87775"/>
  <path d="m154.73 496.31c0.24274 1.5493-1.3425 3.0086-3.5398 3.2622s-4.1736-0.79294-4.415-2.3422 1.3871-2.7031 3.5835-2.9572 4.1299 0.48843 4.3713 2.0372z" fill="#e87673"/>
  <path d="m154.66 496.29c0.2392 1.5241-1.3112 2.9582-3.4613 3.2069s-4.0853-0.78158-4.3227-2.3057 1.3535-2.6685 3.5032-2.9172 4.0438 0.49287 4.2808 2.016z" fill="#e87673"/>
  <path d="m154.59 496.28c0.23523 1.4979-1.2803 2.9068-3.3832 3.1505s-3.9966-0.7707-4.23-2.2691c-0.23522-1.4944 1.3196-2.6334 3.422-2.8771s3.9578 0.49831 4.1912 1.9957z" fill="#e87573"/>
  <path d="m154.52 496.27c0.23126 1.4727-1.2489 2.8569-3.305 3.0947-2.0548 0.23927-3.9083-0.75884-4.1383-2.232s1.2869-2.5983 3.3426-2.8371c2.0535-0.23778 3.8708 0.50276 4.1007 1.9745z" fill="#e87473"/>
  <path d="m154.44 496.26c0.22773 1.447-1.2172 2.8055-3.2265 3.0383s-3.8196-0.74746-4.046-2.1944c-0.22684-1.444 1.2534-2.5647 3.2618-2.7976s3.7852 0.50721 4.0107 1.9537z" fill="#e87472"/>
  <path d="m154.37 496.25c0.22331 1.4218-1.1867 2.755-3.1484 2.9829s-3.7318-0.73708-3.9538-2.1584 1.2194-2.5296 3.181-2.757 3.6992 0.51166 3.9211 1.9324z" fill="#e87472"/>
  <path d="m154.3 496.23c0.21978 1.3956-1.1554 2.7041-3.0703 2.9271s-3.6431-0.72522-3.8611-2.1208c-0.21934-1.3921 1.1858-2.495 3.1003-2.718s3.6131 0.51709 3.8311 1.9117z" fill="#e87272"/>
  <path d="m154.23 496.22c0.21624 1.3698-1.1245 2.6537-2.9922 2.8707s-3.5544-0.71384-3.7689-2.0842c-0.21536-1.3664 1.1527-2.4599 3.02-2.6774s3.527 0.52155 3.7411 1.8909z" fill="#e87171"/>
  <path d="m154.15 496.21c0.21227 1.3442-1.0932 2.6023-2.9136 2.8149s-3.4666-0.70247-3.6771-2.0476c-0.21139-1.3407 1.1192-2.4248 2.9392-2.6374s3.4414 0.526 3.6515 1.8701z" fill="#e86f70"/>
  <path d="m154.08 496.2c0.2083 1.3184-1.0618 2.5514-2.8359 2.7585s-3.3779-0.69159-3.5844-2.01 1.0856-2.3912 2.8589-2.5983 3.3549 0.53193 3.5615 1.8499z" fill="#e86f70"/>
  <path d="m154.01 496.19c0.20434 1.2927-1.0309 2.5004-2.7574 2.7021s-3.29-0.67974-3.4926-1.9725 1.0521-2.3566 2.7781-2.5583c1.7247-0.2012 3.2693 0.53588 3.4719 1.8286z" fill="#e86e70"/>
  <path d="m153.94 496.18c0.19992 1.267-1 2.4505-2.6797 2.6468s-3.2013-0.66837-3.3999-1.9364c-0.20036-1.2636 1.0181-2.3215 2.6974-2.5178s3.1832 0.54033 3.3823 1.8074z" fill="#e76d6f"/>
  <path d="m153.86 496.17c0.19684 1.2418-0.96825 2.3996-2.6007 2.5914s-3.1131-0.657-3.3081-1.8993 0.98547-2.2869 2.6175-2.4782 3.0968 0.54527 3.2914 1.7861z" fill="#e76c6f"/>
  <path d="m153.79 496.15c0.19286 1.2161-0.93736 2.3487-2.5226 2.535-1.5839 0.18638-3.0244-0.64562-3.2159-1.8622-0.19197-1.2127 0.95193-2.2518 2.5372-2.4387 1.5826-0.18489 3.0107 0.55022 3.2013 1.7658z" fill="#e76c6f"/>
  <path d="m153.72 496.14c0.1889 1.1899-0.90602 2.2973-2.4445 2.4787s-2.9361-0.63425-3.1232-1.8252 0.91795-2.2177 2.456-2.3986 2.9251 0.55467 3.1117 1.7451z" fill="#e76a6f"/>
  <path d="m153.65 496.13c0.18535 1.1647-0.87515 2.2473-2.3664 2.4233s-2.8478-0.62288-3.031-1.7886c-0.18447-1.1612 0.88485-2.1831 2.3756-2.3586 1.4886-0.175 2.8386 0.55961 3.0217 1.7238z" fill="#e7696d"/>
  <path d="m153.57 496.12c0.18138 1.139-0.84381 2.1964-2.2882 2.3675s-2.7596-0.612-2.9392-1.7515 0.85175-2.1485 2.2958-2.3185 2.7521 0.56406 2.9317 1.7026z" fill="#e6676d"/>
  <path d="m153.5 496.11c0.1774 1.1138-0.81292 2.146-2.2101 2.3116s-2.6709-0.60064-2.8465-1.7144 0.81776-2.1134 2.2146-2.279c1.395-0.16462 2.6664 0.569 2.8421 1.6818z" fill="#e7666d"/>
  <path d="m153.43 496.1c0.17344 1.0876-0.78157 2.0946-2.1316 2.2552s-2.583-0.58878-2.7547-1.6764 0.78466-2.0802 2.1338-2.2399 2.5804 0.57395 2.7525 1.661z" fill="#e7666d"/>
  <path d="m153.36 496.08c0.16947 1.0624-0.75068 2.0447-2.0535 2.1999-1.3019 0.15473-2.4948-0.57791-2.6625-1.6408s0.75113-2.0442 2.0535-2.1989 2.4943 0.5784 2.6625 1.6398z" fill="#e6656c"/>
  <path d="m126.01 483.67c-1.4369 2.2641-0.43514 6.5126 2.2366 9.4916s6.0006 3.5668 7.4389 1.3056 0.0618-6.4059-2.6086-9.3854-5.6299-3.6721-7.0669-1.4119z" fill="#f4b891"/>
  <path d="m126.05 483.69c-1.4264 2.2473-0.43382 6.4627 2.2163 9.4179s5.9525 3.5356 7.3802 1.2912 0.0644-6.3564-2.5844-9.3126-5.5858-3.6399-7.0121-1.3966z" fill="#f4b791"/>
  <path d="m126.09 483.72c-1.4162 2.231-0.4325 6.4128 2.1956 9.3433s5.9049 3.5054 7.322 1.2779c1.4148-2.229 0.0666-6.3084-2.5601-9.24s-5.5417-3.6088-6.9574-1.3812z" fill="#f4b791"/>
  <path d="m126.13 483.74c-1.4056 2.2142-0.43117 6.3633 2.1753 9.2696s5.8568 3.4758 7.2632 1.2635c1.4043-2.2112 0.0693-6.2595-2.5358-9.1668s-5.4975-3.5767-6.9027-1.3664z" fill="#f4b690"/>
  <path d="m126.17 483.76c-1.395 2.1979-0.42984 6.3134 2.1545 9.196s5.8091 3.4451 7.2054 1.2503c1.3936-2.1955 0.0715-6.2116-2.5116-9.0947-2.5857-2.8846-5.4538-3.5455-6.8484-1.3516z" fill="#f4b590"/>
  <path d="m126.21 483.78c-1.3844 2.1806-0.42852 6.2635 2.1342 9.1214s5.761 3.4145 7.1463 1.2364c1.3831-2.1786 0.0746-6.1626-2.4868-9.0215s-5.4093-3.5139-6.7937-1.3362z" fill="#f4b490"/>
  <path d="m126.25 483.81c-1.3743 2.1648-0.4272 6.2145 2.1139 9.0482 2.5398 2.8362 5.7129 3.3839 7.0876 1.2225s0.0772-6.1142-2.4621-8.9488c-2.542-2.8361-5.3656-3.4827-6.7394-1.3219z" fill="#f3b490"/>
  <path d="m126.29 483.83c-1.3632 2.148-0.42588 6.1646 2.0932 8.974s5.6652 3.3537 7.0294 1.2086 0.0799-6.0657-2.4378-8.8761-5.3214-3.4506-6.6847-1.3066z" fill="#f3b38f"/>
  <path d="m126.33 483.85c-1.3531 2.1312-0.42455 6.1142 2.0729 8.8999s5.6167 3.3231 6.9706 1.1948 0.0825-6.0173-2.4136-8.8034-5.2773-3.419-6.63-1.2912z" fill="#f3b28e"/>
  <path d="m126.37 483.88c-1.3425 2.1144-0.42322 6.0652 2.0522 8.8262 2.4749 2.764 5.569 3.2929 6.9128 1.1811s0.0847-5.9684-2.3893-8.7299c-2.4767-2.7639-5.2336-3.3878-6.5757-1.2774z" fill="#f2b18f"/>
  <path d="m126.41 483.9c-1.3319 2.098-0.4219 6.0148 2.0318 8.7521s5.5209 3.2622 6.8537 1.1662 0.0878-5.9189-2.3646-8.6567-5.1895-3.3557-6.521-1.2616z" fill="#f2b18d"/>
  <path d="m126.45 483.92c-1.3209 2.0812-0.42014 5.9649 2.0115 8.6774 2.4317 2.7155 5.4732 3.2326 6.7954 1.1533s0.09-5.8704-2.3403-8.5839-5.1454-3.324-6.4667-1.2468z" fill="#f3b08e"/>
  <path d="m126.49 483.95c-1.3112 2.0644-0.41925 5.915 1.9908 8.6042s5.4252 3.201 6.7368 1.139 0.0927-5.8224-2.316-8.5118-5.1012-3.2924-6.4115-1.2314z" fill="#f3af8e"/>
  <path d="m126.53 483.97c-1.3001 2.0476-0.41749 5.866 1.9709 8.5296 2.3875 2.667 5.3766 3.1708 6.6781 1.1261 1.2992-2.0456 0.0953-5.774-2.2918-8.4391s-5.0566-3.2608-6.3572-1.2166z" fill="#f3ae8e"/>
  <path d="m126.57 483.99c-1.2895 2.0313-0.41617 5.8161 1.9502 8.4554s5.329 3.1406 6.6198 1.1123 0.098-5.7251-2.2671-8.366-5.013-3.2296-6.3029-1.2018z" fill="#f3ae8d"/>
  <path d="m126.61 484.02c-1.2798 2.015-0.41528 5.7666 1.9294 8.3823s5.2808 3.1105 6.5611 1.0985 0.10062-5.6767-2.2428-8.2933c-2.3456-2.6176-4.9688-3.198-6.2478-1.1874z" fill="#f2ac8d"/>
  <path d="m126.65 484.04c-1.2688 1.9977-0.41352 5.7167 1.9096 8.3076s5.2327 3.0799 6.5024 1.0841 0.10283-5.6272-2.2185-8.2196-4.9247-3.1668-6.1935-1.1721z" fill="#f2ac8c"/>
  <path d="m126.69 484.06c-1.2586 1.9814-0.41264 5.6668 1.8884 8.234s5.1851 3.0491 6.4446 1.0703 0.10504-5.5788-2.1947-8.147-4.8806-3.1352-6.1383-1.1573z" fill="#f1ab8c"/>
  <path d="m126.73 484.09c-1.2481 1.9641-0.41132 5.6164 1.8677 8.1593 2.279 2.546 5.1374 3.019 6.3859 1.0564s0.10812-5.5299-2.1695-8.0743-4.8369-3.1036-6.084-1.1415z" fill="#f1ab8c"/>
  <path d="m126.77 484.11c-1.237 1.9478-0.40954 5.5664 1.8478 8.0857s5.0889 2.9879 6.3272 1.0426 0.11076-5.4814-2.1453-8.0016-4.7923-3.0719-6.0298-1.1266z" fill="#f2a98a"/>
  <path d="m126.81 484.13c-1.2273 1.931-0.40867 5.517 1.8271 8.0115 2.2348 2.497 5.0408 2.9582 6.2685 1.0292s0.11343-5.4334-2.1205-7.929c-2.2371-2.496-4.749-3.0408-5.975-1.1118z" fill="#f2a88b"/>
  <path d="m126.85 484.16c-1.2158 1.9151-0.4069 5.4676 1.8068 7.9384s4.9931 2.9276 6.2103 1.0149 0.11607-5.3845-2.0963-7.8563-4.7045-3.0086-5.9207-1.097z" fill="#f2a88a"/>
  <path d="m126.89 484.18c-1.2061 1.8983-0.40602 5.4181 1.786 7.8642s4.945 2.8974 6.152 1.0016c1.2044-1.8968 0.11828-5.3361-2.0724-7.7831s-4.6604-2.978-5.8656-1.0826z" fill="#f2a78a"/>
  <path d="m126.93 484.2c-1.1955 1.8815-0.40469 5.3682 1.7657 7.7896s4.8969 2.8668 6.0929 0.98721c1.1942-1.8795 0.12136-5.2866-2.0477-7.7104s-4.6162-2.9454-5.8109-1.0663z" fill="#f1a689"/>
  <path d="m126.97 484.23c-1.1845 1.8647-0.40248 5.3183 1.7454 7.7154s4.8492 2.8366 6.0346 0.97389c1.1836-1.8627 0.12401-5.2382-2.0235-7.6373s-4.5721-2.9142-5.7566-1.052z" fill="#f0a589"/>
  <path d="m127.01 484.25c-1.1748 1.8479-0.40161 5.2683 1.7242 7.6417 2.1263 2.3764 4.8016 2.8059 5.9764 0.95954s0.12665-5.1897-1.9988-7.5636c-2.1276-2.3759-4.5284-2.8826-5.7018-1.0376z" fill="#f0a48a"/>
  <path d="m127.05 484.27c-1.1642 1.8311-0.40027 5.2179 1.7039 7.5671s4.753 2.7758 5.9181 0.9462c1.1624-1.8301 0.12843-5.1413-1.9749-7.492-2.1055-2.3511-4.4843-2.8504-5.6471-1.0213z" fill="#f0a488"/>
  <path d="m127.09 484.3c-1.1536 1.8153-0.39895 5.169 1.6836 7.4939 2.0826 2.328 4.7049 2.7452 5.8594 0.93235s0.13108-5.0928-1.9506-7.4183-4.4401-2.8198-5.5924-1.008z" fill="#f0a388"/>
  <path d="m127.13 484.32c-1.143 1.798-0.39719 5.119 1.6633 7.4198s4.6572 2.715 5.8007 0.91851 0.13416-5.0439-1.9255-7.3466-4.3964-2.7872-5.5386-0.99169z" fill="#f0a288"/>
  <path d="m127.17 484.34c-1.132 1.7812-0.39587 5.0691 1.643 7.3456s4.6092 2.6843 5.742 0.90466 0.13681-4.9954-1.9012-7.2729-4.3523-2.756-5.4838-0.97734z" fill="#f0a187"/>
  <path d="m127.21 484.37c-1.1218 1.7653-0.39454 5.0197 1.6227 7.272s4.561 2.6532 5.6838 0.89034 0.13858-4.9465-1.8769-7.1998-4.3086-2.7249-5.4296-0.96252z" fill="#f0a187"/>
  <path d="m127.25 484.39c-1.1112 1.7476-0.39321 4.9702 1.602 7.1973s4.5134 2.6236 5.6255 0.87699 0.14122-4.8981-1.8527-7.1276c-1.997-2.2295-4.264-2.6928-5.3748-0.94669z" fill="#f09f87"/>
  <path d="m127.29 484.41c-1.1006 1.7312-0.39189 4.9203 1.5812 7.1232 1.974 2.2068 4.4657 2.5934 5.5673 0.86314s0.14387-4.8491-1.8284-7.054c-1.9749-2.2058-4.2199-2.6621-5.3201-0.93235z" fill="#ef9e86"/>
  <path d="m127.33 484.44c-1.0901 1.7149-0.39057 4.8709 1.561 7.05s4.4172 2.5622 5.5081 0.8493 0.14697-4.8007-1.8037-6.9823-4.1758-2.6295-5.2654-0.91703z" fill="#ef9c86"/>
  <path d="m127.37 484.46c-1.0795 1.6976-0.38924 4.8204 1.5406 6.9749 1.9299 2.1583 4.3691 2.5321 5.4494 0.83594s0.1496-4.7527-1.7794-6.9091-4.1316-2.5988-5.2107-0.9017z" fill="#ef9c86"/>
  <path d="m127.41 484.48c-1.0693 1.6813-0.38792 4.771 1.5199 6.9017s4.3214 2.5014 5.3916 0.82112 0.15182-4.7033-1.7551-6.8354-4.088-2.5672-5.1564-0.88737z" fill="#ef9b85"/>
  <path d="m127.45 484.51c-1.0587 1.6645-0.3866 4.7206 1.4996 6.827s4.2733 2.4713 5.3325 0.80778 0.15491-4.6548-1.7304-6.7633-4.0438-2.5355-5.1017-0.87154z" fill="#ef9b84"/>
  <path d="m127.49 484.53c-1.0481 1.6477-0.38528 4.6716 1.4793 6.7539s4.2248 2.4406 5.2742 0.79344 0.15711-4.6059-1.7066-6.6896c-1.8655-2.0842-3.9992-2.5044-5.0469-0.8577z" fill="#ef9b84"/>
  <path d="m127.53 484.55c-1.038 1.6319-0.38394 4.6217 1.4586 6.6797s4.1771 2.4105 5.216 0.78009 0.15976-4.558-1.6823-6.6174-3.9556-2.4728-4.9922-0.84238z" fill="#ef9983"/>
  <path d="m127.57 484.58c-1.0274 1.6151-0.38306 4.5723 1.4378 6.6056 1.8213 2.0372 4.1294 2.3803 5.1577 0.76624s0.16241-4.509-1.6576-6.5448c-1.8222-2.0348-3.9114-2.4406-4.9379-0.82705z" fill="#ef9883"/>
  <path d="m127.61 484.6c-1.0168 1.5982-0.3813 4.5224 1.4175 6.5319s4.0813 2.3492 5.099 0.7524 0.16461-4.4606-1.6333-6.4716-3.8673-2.409-4.8832-0.81271z" fill="#ee9783"/>
  <path d="m127.65 484.62c-1.0062 1.5814-0.38042 4.4729 1.3972 6.4573 1.7776 1.9893 4.0332 2.32 5.0399 0.73906s0.16771-4.4116-1.6086-6.3989-3.8232-2.3769-4.8285-0.7974z" fill="#ee9783"/>
  <path d="m127.69 484.65c-0.99606 1.5641-0.37865 4.4225 1.3765 6.3831s3.9856 2.2894 4.9821 0.72523c0.99474-1.5636 0.16991-4.3637-1.5843-6.3263-1.7569-1.9621-3.7795-2.3457-4.7742-0.78207z" fill="#ee9682"/>
  <path d="m127.73 484.67c-0.98503 1.5478-0.37777 4.3726 1.3562 6.309s3.9375 2.2592 4.9234 0.71188c0.98414-1.5473 0.17256-4.3152-1.5601-6.2536s-3.7353-2.3141-4.7195-0.76725z" fill="#ed9482"/>
  <path d="m127.77 484.69c-0.97488 1.531-0.37601 4.3231 1.3359 6.2353 1.7119 1.9161 3.8894 2.228 4.8647 0.69704 0.97355-1.5305 0.1752-4.2658-1.5358-6.1804s-3.6912-2.2819-4.6648-0.75191z" fill="#ed9482"/>
  <path d="m127.81 484.71c-0.96428 1.5152-0.37512 4.2737 1.3151 6.1616s3.8417 2.1979 4.8064 0.68369 0.17784-4.2168-1.5115-6.1073-3.6466-2.2513-4.61-0.73807z" fill="#ee9482"/>
  <path d="m127.86 484.74c-0.95369 1.4984-0.37335 4.2238 1.2948 6.088 1.6682 1.8672 3.7931 2.1668 4.7473 0.66936s0.18049-4.1684-1.4864-6.0346-3.6029-2.2196-4.5558-0.72275z" fill="#ee9282"/>
  <path d="m127.9 484.76c-0.9431 1.4816-0.37247 4.1733 1.2741 6.0133s3.7455 2.1361 4.689 0.65601 0.18315-4.1204-1.4621-5.9619-3.5588-2.188-4.501-0.70742z" fill="#ed9182"/>
  <path d="m127.94 484.79c-0.93295 1.4648-0.37071 4.1244 1.2538 5.9397s3.6974 2.106 4.6308 0.64118 0.18535-4.0705-1.4383-5.8883c-1.6258-1.8168-3.5147-2.1569-4.4463-0.6926z" fill="#ed9181"/>
  <path d="m127.98 484.81c-0.92236 1.448-0.36983 4.074 1.233 5.865s3.6497 2.0758 4.5725 0.62833 0.18799-4.0226-1.4136-5.8166-3.471-2.1247-4.392-0.67677z" fill="#ed9081"/>
  <path d="m128.02 484.83c-0.91177 1.4306-0.36806 4.024 1.2128 5.7909s3.6012 2.0456 4.5138 0.61448 0.19065-3.9736-1.3893-5.7429-3.4268-2.0941-4.3373-0.66243z" fill="#ed8e81"/>
  <path d="m128.06 484.86c-0.90162 1.4153-0.36718 3.9751 1.1924 5.7177 1.5596 1.746 3.5531 2.0145 4.4551 0.60064s0.19329-3.9257-1.365-5.6708c-1.5605-1.7431-3.3823-2.062-4.2826-0.6476z" fill="#ed8d80"/>
  <path d="m128.1 484.88c-0.89103 1.3985-0.36542 3.9252 1.1717 5.643s3.5054 1.9848 4.3964 0.5873 0.19639-3.8767-1.3403-5.5976-3.3386-2.0308-4.2278-0.63277z" fill="#ed8d80"/>
  <path d="m128.14 484.9c-0.88043 1.3817-0.36453 3.8752 1.1514 5.5699 1.5159 1.6976 3.4573 1.9537 4.3382 0.57246s0.19859-3.8278-1.316-5.5249c-1.5168-1.6951-3.2945-1.9987-4.1736-0.61744z" fill="#ed8c7f"/>
  <path d="m128.18 484.92c-0.86984 1.3649-0.36276 3.8253 1.1307 5.4952s3.4096 1.9245 4.2799 0.55962 0.2008-3.7794-1.2918-5.4518c-1.4952-1.6714-3.2503-1.968-4.1188-0.60311z" fill="#ed8a7f"/>
  <path d="m128.22 484.95c-0.85969 1.3481-0.36188 3.7754 1.1104 5.4211s3.3615 1.8934 4.2212 0.54478 0.20344-3.7304-1.2675-5.3786-3.2062-1.9359-4.0641-0.58729z" fill="#ed8a7e"/>
  <path d="m128.26 484.97c-0.84866 1.3313-0.36012 3.7255 1.0901 5.347s3.3134 1.8632 4.1625 0.53192 0.2061-3.6824-1.2432-5.3064-3.1621-1.9033-4.0094-0.57247z" fill="#eb897d"/>
  <path d="m128.3 485c-0.83851 1.314-0.35924 3.6755 1.0693 5.2733s3.2653 1.8321 4.1043 0.5171 0.20874-3.6335-1.2185-5.2332-3.1184-1.8721-3.9551-0.55714z" fill="#eb877c"/>
  <path d="m128.34 485.02c-0.82792 1.2982-0.35747 3.6266 1.049 5.1991 1.4069 1.577 3.2177 1.8019 4.0456 0.50424s0.21139-3.5851-1.1942-5.1611c-1.4078-1.5735-3.0742-1.84-3.9004-0.5423z" fill="#eb877c"/>
  <path d="m128.38 485.04c-0.81732 1.2814-0.35658 3.5767 1.0283 5.125 1.3853 1.5528 3.1696 1.7723 3.9873 0.4904s0.21404-3.5361-1.17-5.0874c-1.3862-1.5503-3.0296-1.8093-3.8457-0.52798z" fill="#eb867b"/>
  <path d="m128.42 485.06c-0.80629 1.2651-0.35438 3.5267 1.0084 5.0513 1.3632 1.5285 3.1215 1.7416 3.9286 0.47656s0.21625-3.4882-1.1452-5.0152-2.986-1.7772-3.7918-0.51265z" fill="#ea847b"/>
  <path d="m128.46 485.09c-0.79658 1.2482-0.35394 3.4768 0.98723 4.9772s3.0738 1.7114 3.8704 0.46222 0.2189-3.4387-1.121-4.9416-2.9418-1.7461-3.7367-0.49782z" fill="#ea837b"/>
  <path d="m128.5 485.11c-0.78555 1.2309-0.35173 3.4269 0.96737 4.903s3.0257 1.6803 3.8117 0.44788c0.78468-1.2309 0.22199-3.3898-1.0967-4.8684s-2.8977-1.7144-3.6824-0.48249z" fill="#ea837b"/>
  <path d="m128.54 485.13c-0.7754 1.2151-0.35129 3.3774 0.94663 4.8293 1.2979 1.4554 2.9772 1.6497 3.753 0.43454 0.77453-1.2151 0.2242-3.3414-1.0724-4.7962s-2.8536-1.6828-3.6272-0.46765z" fill="#ea8179"/>
  <path d="m128.58 485.16c-0.76481 1.1988-0.34953 3.3275 0.92589 4.7557s2.9295 1.619 3.6947 0.42069c0.76392-1.1983 0.22683-3.2934-1.0477-4.7231-1.2772-1.4287-2.8099-1.6516-3.5729-0.45333z" fill="#ea8078"/>
  <path d="m128.62 485.18c-0.75422 1.181-0.3482 3.2781 0.90603 4.6806 1.2547 1.4074 2.8814 1.5893 3.636 0.40784s0.22949-3.245-1.0234-4.6509c-1.2551-1.404-2.7658-1.62-3.5186-0.4375z" fill="#ea8078"/>
  <path d="m128.66 485.2c-0.74407 1.1647-0.34688 3.2281 0.88528 4.6074s2.8333 1.5582 3.5773 0.39301 0.23214-3.196-0.99915-4.5777-2.7216-1.5884-3.4635-0.42268z" fill="#ea7e77"/>
  <path d="m128.7 485.23c-0.73347 1.1489-0.34599 3.1787 0.86456 4.5332 1.211 1.3585 2.7856 1.5285 3.5191 0.38016s0.23435-3.1471-0.97443-4.5051-2.6775-1.5572-3.4092-0.40833z" fill="#ea7d78"/>
  <path d="m128.74 485.25c-0.72244 1.1311-0.34379 3.1283 0.84425 4.4586s2.738 1.4984 3.4608 0.36582 0.23698-3.0981-0.95017-4.4319-2.6334-1.5251-3.3549-0.39251z" fill="#e97c77"/>
  <path d="m128.78 485.27c-0.71273 1.1153-0.34335 3.0793 0.8235 4.3854s2.6898 1.4672 3.4021 0.35198 0.23964-3.0502-0.92589-4.3592-2.5892-1.494-3.2998-0.37819z" fill="#e97c77"/>
  <path d="m128.82 485.3c-0.70126 1.098-0.34114 3.0289 0.80364 4.3108 1.1457 1.2863 2.6413 1.4376 3.3434 0.33813s0.24228-3.0012-0.90162-4.2865c-1.1461-1.2824-2.5451-1.4618-3.2455-0.36237z" fill="#e97a76"/>
  <path d="m128.86 485.32c-0.69155 1.0816-0.34026 2.979 0.78246 4.2371s2.5936 1.4069 3.2852 0.32429 0.24494-2.9528-0.8769-4.2139-2.5014-1.4302-3.1907-0.34753z" fill="#e97a76"/>
  <path d="m128.9 485.34c-0.68096 1.0648-0.33894 2.9296 0.76216 4.163 1.102 1.2379 2.5455 1.3763 3.2265 0.31095s0.24759-2.9043-0.85263-4.1407c-1.1024-1.2344-2.4573-1.3985-3.136-0.3332z" fill="#e87975"/>
  <path d="m128.94 485.37c-0.66992 1.048-0.33716 2.8791 0.74231 4.0888s2.4974 1.3456 3.1678 0.2971 0.25023-2.8564-0.82836-4.0685-2.4131-1.3669-3.0817-0.31737z" fill="#e87975"/>
  <path d="m128.98 485.39c-0.66022 1.0312-0.33629 2.8297 0.72112 4.0147 1.0583 1.1889 2.4498 1.3155 3.1095 0.28276s0.25244-2.807-0.80364-3.9949-2.3694-1.3352-3.027-0.30254z" fill="#e87875"/>
  <path d="m129.02 485.41c-0.64962 1.0159-0.33496 2.7807 0.70038 3.942s2.4017 1.2848 3.0513 0.26844 0.25554-2.758-0.77936-3.9217c-1.0371-1.1617-2.3253-1.3036-2.9723-0.2887z" fill="#e87775"/>
  <path d="m129.06 485.44c-0.63903 0.99859-0.33364 2.7308 0.68007 3.8673 1.015 1.1405 2.354 1.2547 2.9926 0.25508s0.25817-2.7096-0.7551-3.8495c-1.0155-1.137-2.2812-1.272-2.9176-0.27288z" fill="#e87673"/>
  <path d="m129.1 485.46c-0.628 0.98228-0.33187 2.6809 0.66021 3.7937 0.99297 1.1162 2.3055 1.224 2.9339 0.24074s0.26082-2.6606-0.73083-3.7759c-0.99341-1.1133-2.2366-1.2413-2.8633-0.25854z" fill="#e87673"/>
  <path d="m129.14 485.48c-0.61741 0.96449-0.33055 2.6305 0.63947 3.719s2.2578 1.1939 2.8756 0.22691 0.26303-2.6122-0.70611-3.7037-2.1929-1.2087-2.809-0.24223z" fill="#e87573"/>
  <path d="m129.18 485.51c-0.60726 0.94867-0.32923 2.581 0.61917 3.6449 0.94972 1.0683 2.2097 1.1632 2.817 0.21406s0.26568-2.5642-0.68184-3.631c-0.95017-1.0638-2.1488-1.178-2.7543-0.22789z" fill="#e87473"/>
  <path d="m129.22 485.53c-0.59622 0.93186-0.3279 2.5311 0.59887 3.5707s2.1616 1.1326 2.7582 0.19973 0.26832-2.5143-0.65756-3.5574-2.1047-1.1464-2.6996-0.21307z" fill="#e87472"/>
  <path d="m129.26 485.55c-0.58607 0.91505-0.32657 2.4812 0.57813 3.4971 0.90604 1.0189 2.1139 1.1019 2.7 0.18588s0.27053-2.4658-0.63285-3.4852c-0.90648-1.0159-2.061-1.1148-2.6453-0.19774z" fill="#e87472"/>
  <path d="m129.3 485.58c-0.57548 0.89824-0.32525 2.4312 0.55739 3.4229 0.8844 0.99514 2.0663 1.0723 2.6417 0.17203s0.27318-2.4174-0.60857-3.4115-2.0168-1.0836-2.5906-0.18341z" fill="#e87272"/>
  <path d="m129.34 485.6c-0.56489 0.88192-0.32393 2.3823 0.53709 3.3488s2.0177 1.0416 2.583 0.15868c0.56401-0.88242 0.27583-2.369-0.5843-3.3394s-1.9727-1.052-2.5358-0.16808z" fill="#e87171"/>
  <path d="m129.38044,485.62346c-.55474.86512-.32261,2.33236.51679,3.2751 .84071.94668 1.9696,1.01095 2.52435.14435s.27847-2.32-.56004-3.2662c-.84071-.94323-1.92857-1.02035-2.4811-.15325z" fill="#e86f70"/>
  <path d="m129.42 485.65c-0.54415 0.84831-0.32128 2.2824 0.49604 3.2009s1.922 0.9808 2.4661 0.13101 0.28112-2.2716-0.53532-3.194-1.8844-0.98871-2.4268-0.13792z" fill="#e86f70"/>
  <path d="m129.4617,485.67024c-.53356.83151-.31996,2.2325.47574,3.12679 .79703.89825 1.87384.94966 2.4074.11717s.28377-2.22362-.51104-3.12136c-.79748-.89478-1.84031-.95707-2.3721-.1226z" fill="#e86e70"/>
  <path d="m129.50104,485.69323c-.52341.81519-.31864,2.18307.45544,3.05313s1.82574.92 2.34871.10283 .28641-2.17417-.48678-3.0477c-.7754-.87006-1.79617-.92543-2.31737-.10826z" fill="#e76d6f"/>
  <path d="m129.54 485.72c-0.51281 0.79887-0.3173 2.1331 0.4347 2.979s1.7776 0.88983 2.2905 0.0895 0.28862-2.1257-0.46251-2.975-1.752-0.8933-2.2626-0.0934z" fill="#e76c6f"/>
  <path d="m129.58228,485.73952c-.50222.78158-.31598,2.08271.41396,2.90483 .73215.82556 1.72997.85918 2.2322.0751s.29171-2.07677-.43824-2.90186c-.73126-.82161-1.7079-.86215-2.20792-.0781z" fill="#e76c6f"/>
  <path d="m129.62233,485.7625c-.49163.76527-.31466,2.03427.39366,2.83118s1.68187.82853 2.1735.0618 .29437-2.02834-.41351-2.82969-1.66422-.83002-2.15365-.0633z" fill="#e76a6f"/>
  <path d="m129.66239,485.78697c-.48104.74845-.31334,1.98384.37336,2.75701 .68801.77762 1.63376.79839 2.1148.0475s.29657-1.97989-.38924-2.75603c-.68802-.77317-1.61965-.79937-2.09892-.0484z" fill="#e7696d"/>
  <path d="m129.70226,485.80945c-.46912.73312-.31201,1.93391.35262,2.68286 .66639.75241 1.58611.76774 2.05655.0341s.30098-1.93293-.36453-2.68385-1.57463-.76625-2.04464-.0331z" fill="#e6676d"/>
  <path d="m129.74293,485.83277c-.4603.71532-.31069,1.88498.33231,2.6092 .64477.72868 1.53801.73807 1.9983.0198s.30274-1.88349-.3407-2.6102-1.53182-.73609-1.98991-.0188z" fill="#e7666d"/>
  <path d="m129.78 485.86c-0.44838 0.70001-0.30936 1.8345 0.31202 2.535s1.4895 0.70692 1.9392 6e-3 0.30628-1.8355-0.31598-2.5385-1.4864-0.70297-1.9352-3e-3z" fill="#e7666d"/>
  <path d="m129.82302,485.87907c-.43911.68221-.30804,1.78462.29128,2.46089s1.44223.67678 1.8809-.007 .30716-1.78561-.29127-2.46535-1.444-.67281-1.88091.0119z" fill="#e6656c"/>
  <path d="m135.73 493.54s0.43293-6.9877 3.4728-0.96647c0 0-1.6567 1.8835-3.4728 0.96647z" fill="#f4b891"/>
  <path d="m135.81 493.5s0.41396-6.6916 3.3254-0.92542c0 0-1.5866 1.8034-3.3254 0.92542z" fill="#f4b38b"/>
  <path d="m135.9 493.46s0.39542-6.396 3.178-0.8849c0 0-1.5164 1.7233-3.178 0.8849z" fill="#f2af85"/>
  <path d="m135.98 493.43s0.37777-6.0998 3.0314-0.84386c0 0-1.4462 1.6442-3.0314 0.84386z" fill="#f2a97f"/>
  <path d="m136.07 493.39s0.35968-5.8037 2.884-0.80333c0 0-1.3756 1.5646-2.884 0.80333z" fill="#f2a579"/>
  <path d="m136.15 493.36s0.34114-5.5086 2.7375-0.76279c0 0-1.3059 1.485-2.7375 0.76279z" fill="#f09e74"/>
  <path d="m136.24 493.32s0.32305-5.2125 2.5901-0.72175c0 0-1.2353 1.4054-2.5901 0.72175z" fill="#ef9a6e"/>
  <path d="m136.32 493.28s0.30495-4.9164 2.4432-0.67974c0 0-1.1651 1.3254-2.4432 0.67974z" fill="#ef9469"/>
  <path d="m136.4 493.24s0.28686-4.6202 2.2962-0.6397c0 0-1.0954 1.2458-2.2962 0.6397z" fill="#ee8f62"/>
  <path d="m136.49 493.21s0.26876-4.3246 2.1492-0.59867c0 0-1.0248 1.1657-2.1492 0.59867z" fill="#ec875a"/>
  <path d="m150.02256,499.47966c-.0975.21455-.38174.25954-.63638.10431s-.38086-.45431-.28333-.66886 .38174-.26102.63594-.10629c.25509.1577.38131.45679.28377.67084z" fill="#9e2c14"/>
  <path d="m145.3752,496.37505c-.0984.21405-.38351.26102-.63727.10431-.2542-.15474-.3813-.45432-.28377-.66887s.38307-.26052.63639-.10579c.25464.15671.38086.45679.28465.67035z" fill="#9e2c14"/>
  <path d="m143.83319,499.32955c-.0971.21405-.38174.26003-.6355.1048-.25508-.15572-.38218-.45431-.28465-.66886s.38174-.26102.63639-.10579 .38174.45678.28376.66985z" fill="#9e2c14"/>
  <path d="m153.7242,496.51547c-.0975.21405-.38219.26151-.63683.10431s-.38174-.4558-.28333-.66887 .38175-.26052.63595-.1048c.25464.15474.38086.45481.28421.66936z" fill="#9e2c14"/>
  <path d="m148.67277,495.81733c-.0971.21406-.38042.26201-.63506.10728-.25464-.1577-.3813-.45728-.28465-.67134 .0971-.21504.38307-.26151.63727-.10628s.37997.45579.28244.67034z" fill="#9e2c14"/>
  <path d="m146.53677,498.66529c-.0988.21306-.38262.26102-.63682.10579-.25552-.15671-.38086-.45679-.28421-.67084s.38174-.26102.63638-.10431c.2542.15473.3813.4558.28465.66936z" fill="#9e2c14"/>
  <path d="m132.23736,486.73847c-.0971.21406-.38262.26003-.63638.10579-.25508-.15621-.3813-.4553-.28377-.66935s.38174-.263.63594-.1053c.25465.15473.38175.45579.28421.66886z" fill="#9e2c14"/>
  <path d="m132.11581,489.65136c-.098.21405-.38351.26052-.63815.10678-.25288-.1577-.37998-.45678-.28289-.67133s.38307-.25954.63727-.10481c.25376.15671.3813.4553.28377.66936z" fill="#9e2c14"/>
  <path d="m129.95919,484.82c-.0975.21257-.38174.26053-.63594.10431-.25508-.15572-.3813-.45481-.28377-.67034 .0971-.21258.38174-.25954.63594-.10332 .25509.15522.38175.4553.28377.66935z" fill="#9e2c14"/>
  <path d="m134.64763,490.50224c-.0989.21356-.38263.26053-.63727.1053s-.38174-.45629-.28333-.66886c.0962-.21604.38131-.26201.63595-.10629s.38174.4558.28465.66985z" fill="#9e2c14"/>
  <path d="m124.97 490.22c0.13548-0.0628 0.69375 1.9443 2.6056 4.4329 0.94619 1.2408 2.2181 2.5825 3.7724 3.8723s3.3792 2.538 5.3784 3.6761c1.008 0.57191 1.9762 1.0994 2.9621 1.4806 0.98464 0.39294 1.9648 0.69161 2.907 0.93377 1.8876 0.47902 3.6277 0.71934 5.0906 0.80935 2.9365 0.19819 4.7305-0.28337 4.761-0.138 0.045 0.12165-1.7552 0.87161-4.7791 0.85423-1.5036 0-3.2953-0.16999-5.2482-0.61196-0.97531-0.22489-1.9916-0.51321-3.0239-0.91063-0.51585-0.19819-1.0357-0.42366-1.5534-0.6862-0.51148-0.26241-1.0155-0.53738-1.5265-0.82753-2.0398-1.1616-3.9026-2.4619-5.4732-3.8367s-2.847-2.8163-3.7645-4.165c-0.92368-1.3446-1.4872-2.5786-1.7909-3.459s-0.37247-1.4054-0.3173-1.4242z" fill="#26231f"/>
  <path d="m129.00426,497.28787c.0296-.0564.31731.041.75819.37571s1.01416.9096 1.62582,1.70156c.61608.78801 1.27454,1.78315 1.98771,2.88259 .71626,1.09549 1.48372,2.30963 2.39814,3.43675 .45764.56109.93603,1.06632 1.43781,1.46923 .25111.2007.50752.37521.76747.51807 .13062.0682.26125.13298.39277.18489l.27891.10332 .0243-.005c.049-.0292.0949-.0628.13814-.0994 .0874-.0722.16461-.16016.2383-.26249 .14741-.20566.27451-.47459.43074-.75044 .15402-.27535.35129-.55367.59004-.75982s.49962-.34259.74673-.42563c.49778-.16364.94044-.17106 1.3191-.1587 .37959.0173.69863.0663.95633.11963 .51551.10728.78771.22642.77977.29267s-.29787.0855-.80717.10035c-.49778.0282-1.2688.002-2.03798.32331-.38304.16956-.67301.44937-.90337.94026-.1227.24272-.24008.54132-.43824.85375-.0993.15424-.2211.30947-.36674.44245-.0719.0672-.15005.12803-.23081.18289-.0543.0381-.12357.0737-.18667.1098l-.098.0524-.049.0252-.0512-.0114c-.31952-.0746-.44044-.10969-.60814-.17253-.16372-.0578-.32349-.13048-.4828-.20859-.31598-.16016-.6205-.35741-.91133-.58135-.58121-.44988-1.10815-1.00058-1.59625-1.59875-.97355-1.20129-1.73174-2.45646-2.41403-3.58556s-1.27144-2.15143-1.80455-2.97156-1.00224-1.44204-1.35221-1.84642c-.3482-.40636-.56533-.61349-.53179-.67726z" fill="#26231f"/>
  <path d="m140.25 505.27s-1.5918 2.3121-2.2357 1.9087-4.5288-5.381-4.5288-5.381 4.746 3.5915 6.7646 3.4724z" fill="#da013c"/>
  <path d="m135.97257,491.91801c-.0569-.0178-.0605-.29859.0393-.74302 .0534-.22097.13019-.48693.29436-.76328 .0847-.13644.19286-.27881.34776-.38559s.35129-.17105.54062-.16067 .35746.0707.50266.14435c.17829.0964.26788.19231.38174.29761 .21007.20713.3685.42959.47265.64216 .10592.20961.14873.41427.143.55565s-.0503.21258-.0777.20813c-.064-.0134-.083-.26053-.32967-.56257-.11695-.15227-.27715-.32134-.47089-.48101-.0905-.0727-.21624-.17154-.29656-.20467-.11342-.0514-.23125-.09-.34158-.0929-.43603-.0346-.70303.56703-.86631.92791-.16771.38411-.27671.63821-.33938.61794z" fill="#26231f"/>
  <path d="m153.60679,506.0958c-.0358.0564-.18756.0242-.43206-.0697-.23919-.0984-.58607-.26893-.88749-.62338-.30672-.35396-.42411-.82261-.41308-1.1301s.0892-.48644.14696-.4815c.13505.008.1196.72522.59623,1.26406 .23169.27586.51282.48102.71185.657 .20168.17254.3151.32579.27759.38362z" fill="#26231f"/>
  <path d="m124.44253,491.83745c-.0296-.13694.35967-.3772.58607-.90171 .2542-.51166.15623-.98129.26303-1.05347 .0503-.0306.17255.0707.24272.31935 .0733.24471.0556.6219-.10282.96498s-.40999.57543-.61785.66837-.35615.0658-.37115.002z" fill="#26231f"/>
  <path d="m147.99 490.26c-0.36939 1.099-1.6774 2.5173-2.6819 2.5964l2.6819-2.5964z" fill="#26231f"/>
  <path d="m145.31106,492.85855c-.0199.31145 1.08874.33617 1.89856-.55268 .83586-.832 1.02563-1.96407.78334-2.04366-.23655-.0895-.68449.57444-1.38266,1.27246-.68404.73066-1.2935,1.0426-1.29924,1.32388z" fill="#26231f"/>
  <path d="m146.31 489.57c-0.0115 1.2077-0.82086 2.6023-1.6995 3.1995l1.6995-3.1995z" fill="#26231f"/>
  <path d="m144.60769,492.7733c.0909.24074.97002-.0796 1.54816-1.08512 .55209-1.0416.37688-2.15192.15269-2.11435-.2723.0158-.47663.73066-.90426,1.55029-.46295.79493-.92104,1.37085-.79659,1.64918z" fill="#26231f"/>
  <path d="m145.26 489.51c0.32129 1.051-0.1399 2.4228-0.90338 3.0096l0.90338-3.0096z" fill="#26231f"/>
  <path d="m144.35214,492.52005c.0896.24074.91441-.0979 1.27365-1.14246 .31069-1.08313-.18315-2.00362-.37027-1.86718-.25111.12952-.25597.75587-.46074,1.49245-.25243.7183-.57857,1.23787-.44264,1.51719z" fill="#26231f"/>
  <path d="m146.26 492.79c0.0759 0.88242-0.5446 1.6422-1.3844 1.7001s-1.5848-0.61103-1.6616-1.492c-0.0741-0.88143 0.54592-1.6398 1.3866-1.6966s1.5843 0.60904 1.6594 1.4885z" fill="#26231f"/>
  <path d="m137 483.87c-0.0958 1.1682-1.0177 2.9216-1.9683 3.2959l1.9683-3.2959z" fill="#26231f"/>
  <path d="m135.03 487.16c0.0556 0.30453 1.1302 2e-3 1.6982-1.095 0.60814-1.048 0.52297-2.1959 0.2701-2.2009-0.24936-0.0168-0.52341 0.75488-1.0292 1.6343-0.48678 0.90467-1 1.3872-0.93913 1.6615z" fill="#26231f"/>
  <path d="m135.21 483.7c0.27406 1.1686-0.17388 2.7526-0.87823 3.5866l0.87823-3.5866z" fill="#26231f"/>
  <path d="m134.3335,487.28623c.14563.20614.91529-.36286 1.23481-1.50284 .28421-1.16717-.15005-2.18604-.35659-2.08371-.25949.0944-.28509.84634-.5031,1.7609-.25641.90368-.56092,1.59379-.37512,1.82565z" fill="#26231f"/>
  <path d="m134.18 483.95c0.56092 0.91802 0.44044 2.3764-0.1549 3.1683l0.1549-3.1683z" fill="#26231f"/>
  <path d="m134.02775,487.11778c.14211.20565.85705-.36434.95546-1.47763 .0419-1.13652-.65271-1.87706-.80011-1.69069-.21228.19873-.0675.80382-.0905,1.57453-.0719.76872-.26259,1.36441-.0649,1.59379z" fill="#26231f"/>
  <path d="m135.93 486.82c0.28289 0.82904-0.13327 1.7461-0.9303 2.0486s-1.6735-0.12013-1.9568-0.94719 0.13593-1.7426 0.93208-2.0466 1.6726 0.11865 1.955 0.94521z" fill="#26231f"/>
  <path d="m122.61 497.29s-8.1494 0.43009-10.142 10.193c0 0 14.961 20.22 16.704 23.846s12.255 24.128 12.255 24.128l29.489-7.6808s-7.4702-38.214-8.2174-39.887-20.402 6.0613-22.41 5.5788c-6.9723-1.6729-13.695-16.735-17.679-16.178z" fill="#26231f"/>
  <path d="m146.02 559.77s17.179-9.9603 26.393-5.4972l20.918 40.084s-18.177-3.3468-22.659 1.6758l-5.5686-14.855s2.2256 3.846-0.0163 2.7288l1.103 12.127s-10.627 0.26702-17.181 4.1822c-3.7349 2.2296-3.7353 3.07-3.7353 3.07s-6.7226-31.797 0.74716-43.515z" fill="#26231f"/>
  <path d="m162.2 594.92s13.696 41.837 15.937 44.349 2.4904 6.14 1.7432 5.5813-7.9685-6.4167-6.7235-4.464c0.32653 0.50918-20.842-31.782-21.105-42.712-0.24935-10.322 8.4063-6.3821 10.149-2.7536z" fill="#26231f"/>
  <path d="m172.62 591.94s0.78908 6.046 3.279 13.852 15.189 33.473 15.189 33.473 4.7e-4 7.529 1.2454 5.2994 3.237-6.4168 2.241-7.8108-10.708-39.049-11.953-44.067-7.2619-2.6992-10.002-0.74648z" fill="#26231f"/>
  <path d="m194.6 635.12s5.6957 3.9351 5.0995 6.0114-2.4502 2.892-2.5826 3.9301-1.192 13.278-2.053 13.872-5.9605 3.1194-6.2919 1.8538c-0.33055-1.2606 0.86189-3.0402 1.6563-3.6336s-0.46383-15.874 0.0658-17.208 1.8544-4.4541 4.106-4.8249z" fill="#26231f"/>
  <path d="m173.41 638.47c-0.26478 0.29661-3.245 2.7437-2.914 4.375s6.6225 9.3482 7.0863 11.425 6.8206 8.7501 8.8079 8.0827 1.4842-1.2458 0.55695-2.1356-2.2124-3.7966-2.4776-3.8708c-0.26472-0.0741-4.0394-14.761-5.6952-16.467s-4.4375-1.9329-5.0994-1.2606l-0.2648-0.1483z" fill="#26231f"/>
  <path d="m173.42 640.38s-2.3633 1.5622-1.166 2.012c1.1978 0.44492 7.3175 8.0432 7.8493 10.579 0.53224 2.531 5.588 8.1964 5.7209 7.7514 0.13328-0.44979-2.9269-5.9619-3.0597-7.3066s-7.3802-12.962-9.3446-13.036c-1.9639-0.0791 0 0 0 0z" fill="#092c81"/>
  <path d="m149.49 469.8s9.2178-2.3793 13.991 2.0368 6.2186 12.536 5.5959 19.277l-1.9559-0.0449s-0.72556-0.90073-2.8006-1.3655c0 0 1.1822 4.4744 0.55959 5.1719s-1.6788 1.2533-1.6788 1.2533-1.481-6.739-2.5186-6.739 0.62796 2.6097 5e-3 3.3067c-0.24849 0.2783-0.31778 1.0209-0.84468 0.14146-0.79266-1.3229-2.0606-4.5585-2.0606-4.5585s2.501 11.572 0.66157 10.984c-0.97935-0.31352-2.1144-2.8476-2.1144-2.8476s-2.075-10.926-5.1881-12.553c0 0 2.9057 6.2768 2.283 7.9037 0 0-1.4528-6.742-4.7733-9.2993s-6.2262 0.6976-7.4712 3.0225c0 0-2.075-0.69702-1.4524-1.3946s2.2826-3.0215 3.32-3.7195-10.376-4.6e-4 -14.734 4.8818l-2.0755-0.93031s5.8109-4.8818 10.792-5.5788c0 0-8.5087 0.69748-12.659 3.2548l-2.9052-0.92986s8.9235-3.0215 7.4707-3.7195-7.0558 3.0215-7.4707 1.1618c-0.41528-1.8598 0.0225-8.498 4.3806-10.126s15.136-9.0506 23.644 1.4104z" fill="#26231f"/>
  <path d="m155.07 598.72s5.8475-2.5706 6.6829-0.70199 15.038 40.942 15.038 40.942 1.6704 2.3383 2.2971 3.9746 1.8438 3.1886 0.80002 2.4866-4.5593-5.7592-5.6034-5.7592-16.708-29.478-19.214-40.942z" fill="#f4b891"/>
  <path d="m175.54 594.28s6.4746-1.8687 6.6834 0 10.86 40.942 10.86 40.942 0.62669 3.2726 0.41791 4.6767-1.4621 14.272-1.4621 12.868 0.6267-12.398 0.20913-14.272-13.576-26.201-15.038-32.281c-1.4621-6.0856-1.6708-11.934-1.6708-11.934z" fill="#f4b891"/>
  <path d="m147.68 562s13.379-8.1623 24.03-6.5255c0 0 15.11 30.379 19.078 36.232 0.52069 0.7663-17.961-0.93929-19.215 1.3991s-3.9679-10.525-4.3858-14.035 3.5e-4 2.3383-3.9679 1.404-0.83548 2.8079-0.83548 2.8079l1.4621 11.227s-14.828 0-17.335 4.6815c0 0-4.0531-31.343 1.1682-37.191z" fill="#021940"/>
  <path d="m169.31 578.89c-0.31422 0.70199 2.5795 12.344 2.5795 12.344s8.2059-2.101 14.536-1.0529c0 0-0.55211-2.3532-10.044-2.6399-2.1607-0.0643-6.1344-10.752-7.0722-8.6512z" fill="#092c81"/>
  <path d="m123.12 499.76s-7.9363 3.5089-8.9809 7.0179c0 0 17.335 15.909 18.588 20.12s9.3983 23.629 11.278 22.927 21.929-4.4447 25.271-3.5084c0 0-6.4741-36.263-7.7275-36.497s-20.258 6.3179-22.347 6.0835-14.202-16.143-16.081-16.143z" fill="#021940"/>
  <path d="m97.095 470.99s23.475 25.048 23.528 27.387c0.0274 1.226-4.1882 3.2558-4.1882 3.2558s-21.047-28.948-20.629-29.65 0.87161-1.4608 1.2895-0.99267z" fill="#f4b891"/>
  <path d="m116.07 460.67s-8.1357-2.6226-8.1357-3.9953 3.7909-0.31835 3.9022-1.5676-1.339-10.542 0.22154-10.043 2.5372 6.5013 2.76 4.6282 1.4749-7.1246 2.3664-6.3757-0.62932 7.4984 0.37336 6.3757 2.1903-6.1265 2.7477-4.7532-0.43564 6.1127 0.23387 5.1141 1.7724-3.3661 2.2176-2.1173-3.2314 11.985-4.0116 12.485-2.3408 1.1228-2.6753 0.24964z" fill="#26231f"/>
  <path d="m117.72 461.88s-1.6113-2.1662-2.4979-2.3467-7.171-2.6176-6.2848-2.7076 5.0761 4.6e-4 5.1568-0.54129-2.1757-10.741-1.692-9.5678 2.7397 7.2215 2.9811 6.7702 1.2891-8.756 1.5309-7.8533-0.48325 7.9433 0.56445 7.5824 2.1752-5.957 2.256-5.3257-0.88664 5.2352-0.16114 5.1452 2.1753-3.9716 2.1753-2.6176-2.4979 7.4904-3.3037 8.7545 0.48368 2.5277 0.48368 2.5277-0.72508 0.54072-1.2088 0.1799z" fill="#f4b891"/>
  <path d="m147.97 470.02s-2.3787-3.4842-7.1361-4.2015-15.553 3.5865-16.377 4.4062c-0.23832 0.23779-0.58343 0.92049-0.9409 1.7866-0.17697 0.4291 7.1503-1.7604 6.979-1.274-0.0808 0.23037-7.6666 3.1263-7.7425 3.3586-0.56048 1.7164-0.9484 3.4056-0.67434 3.7131 0.549 0.61449 11.162-3.8945 11.528-2.6646s-4.2084 2.9715-4.2084 2.9715l-5.7641 2.7679 0.8235-0.30742s10.984-3.8812 13.357-3.7923c2.745 0.10232 4.483-0.20515 4.483-0.20515s-12.808 6.0465-12.808 6.4563 11.711-5.0217 14.913-3.7917c0 0-3.1108 3.5865-3.1108 4.4066 0 0 7.5933-7.1736 8.3255-5.4314 0.64822 1.5428 0.0913 4.6113 0.0913 4.6113s0.36635-2.049 0.91535-1.5364 6.4957 11.17 6.953 16.294c0 0-2.6533-16.602-1.3725-15.679s3.4767 9.4279 3.4767 9.4279-2.5619-9.4289-1.0066-8.1989 5.0324 10.864 5.0324 10.864-2.745-8.7116-0.91535-8.1983 4.3002 4.0991 4.3002 4.0991 0.73177-1.5379 0.73177-1.2305 0.54901 1.4347 0.54901 1.4347-0.18278-13.322-5.0315-16.909-11.894-3.1772-14.181-1.9478l-1.1889-1.2295z" fill="#4d1918"/>
  <path d="m148.42 552.11s0.61697 5.1843 2.1598 5.1843 14.809-4.8388 14.809-4.8388 0.61691-4.1471-0.30891-4.1471-12.957 0-16.66 3.8016z" fill="#f4b891"/>
  <path d="m167.67 557.35s-17.116 0.7885-19.929 7.617c-1.4771 3.5851 0.23434 30.728 0.23434 30.728s6.5651-2.625 9.6133-2.625c0 0-6.096-3.154-6.5651-8.142s-1.1722-17.86 0.93781-20.486 13.364-8.405 15.709-7.092z" fill="#092c81"/>
  <path d="m172.76 567.03c-0.48467-1.0851 3.6215 5.6327 2.012 8.1143s-9.8587 3.1539-11.066 3.3814c-1.2074 0.22248-5.6339 0-5.6339 0s9.6579-2.7041 11.871-3.3814 3.8228-5.8581 2.8166-8.1143z" fill="#121616"/>
  <path d="m160.69 514.75s7.4446 26.82 6.4384 28.172-20.724 4.7329-21.931 4.7329 13.078-5.4092 16.297-6.311 4.2247-2.2542 2.6152-2.704-0.60321-0.90223-0.40203-2.9301-1.61-12.846-3.0181-21.636c-0.50538-3.153 0 0.67628 0 0.67628z" fill="#121616"/>
  <path d="m117.63 504.83s5.0297-4.2826 6.2372-3.156 15.291 16.453 15.291 16.453-12.072-11.946-14.486-12.171c-2.414-0.22543-7.8467-0.67578-7.0417-1.1266z" fill="#092c81"/>
  <path d="m136.14 528.95c-0.28465 0.63722 6.2372 16.002 7.6459 17.58s4.0235-2.2544 4.0235-2.2544-2.4144 0.22593-3.6214-1.5769-7.6459-14.65-8.0479-13.749z" fill="#092c81"/>
  <path d="m140.09 522.69s10.462-8.7896 19.717-8.3388c0 0 1.2075 2.0278-1.6095 2.2533s-18.108 6.0855-18.108 6.0855z" fill="#5d579e"/>
  <path d="m148.37 471.94s-4.489-5.5318-9.502-5.1126-8.6035 2.2627-8.6035 2.2627 6.6586-2.933 8.6786-1.2571-4.8634 1.5093-7.1079 3.1846-2.3937 2.5143-2.3937 2.5143 4.2645-2.4302 6.3594-2.4302-3.3668 2.3462-3.3668 2.3462 5.2371-1.6759 7.2575-1.2566-5.2376 3.7709-5.013 3.6869 7.7063-2.933 9.7262-2.3462-0.74846 4.1906-2.3942 4.6098 2.2446-0.50274 3.9654-2.0115-1.6462 3.1851-1.3465 3.0171 3.1201-1.2423 4.0288-3.2193 0.4598-4.0715-0.2882-3.988z" fill="#770d24"/>
  <path d="m148.37 472.86s9.8759-3.1011 13.467 0.67035 5.4622 13.577 5.4622 13.577-1.7957-6.7044-3.2922-7.0396 2.1695 5.4477 1.9449 6.6209-1.7207-4.8605-3.2918-5.4473-1.3465 5.4468-1.3465 5.1957-1.4214-5.4478-2.3946-6.3693-0.89764 2.5148-0.97222 2.0951-3.3668-6.2027-4.4141-6.3693 1.7953 10.475 1.3465 10.979-2.3942-8.3808-3.1422-9.7215-3.7411-0.4197-3.6661-1.6764c0.0746-1.2571-0.29921-2.3462 0.29922-2.5143z" fill="#770d24"/>
  <path d="m150.16 473.44s9.0735-3.2267 12.242 3.0655c0 0-3.1687-2.0975-4.753-1.7747s0.43206 3.0655 0.43206 3.0655-3.7446-5.1635-7.9213-4.3562z" fill="#c45557"/>
  <path d="m148 473.6s-1.5839-5.4854-6.3374-5.3242 1.8725 0.64513 2.3046 1.9364-4.321 0.48397-4.321 0.48397 7.7774-0.16166 8.3538 2.9038z" fill="#c45557"/>
  <path d="m99.39 474.52s17.916 25.15 18.937 24.769 1.2472-1.27 1.2472-1.27-20.524-24.007-20.184-23.499z" fill="#f8d7bc"/>
  <path d="m118.78 462.96 3.9688 6.351 0.56665-1.0164s-5.1025-6.2244-4.5354-5.3346z" fill="#f8d7bc"/>
  <path d="m156.82 600.22s8.1154 24.441 13.969 31.594c0 0-13.038-30.101-12.373-31.743 0 0-1.8624-0.44492-1.5963 0.14831z" fill="#f8d7bc"/>
  <path d="m176.78 597.54s5.987 20.565 10.377 28.312c0 0-9.0471-26.675-8.6477-28.312s-1.7295-1.3446-1.7295 0z" fill="#f8d7bc"/>
  <path d="m195.54 637.92s4.3898 2.2345 3.0597 3.1293-2.3946 3.5791-2.3946 3.5791-1.1973 11.924-1.8624 12.517c-0.66551 0.59815-3.5919 2.2345-3.0601 1.488 0.53223-0.74144 1.0645-2.6794 1.5967-4.0191s0.93074-7.3065 1.1973-9.6893 0.66507-7.005 1.4634-7.005z" fill="#092c81"/>
  <path d="m114.3 507.83s6.9044-5.915 9.5669-6.1537 1.8474 1.8919 1.8474 1.8919-7.6092 3.3492-8.6962 6.3935l-2.7181-2.1316z" fill="#06a1d8"/>
  <path d="m145.66 595.82 0.8544 3.3715s7.3824-7.2324 17.335-4.6815l-0.41572-2.8376s-10.923-2.9019-17.773 4.1476z" fill="#06a1d8"/>
  <path d="m142.14 549.58 1.666 1.8667s9.3441-3.9622 24.808-4.77c1.1897-0.0623-0.18496-3.3181-0.18496-3.3181s-15.181 0.82903-26.289 6.2214z" fill="#06a1d8"/>
  <path d="m147.32 561.19s11.374-8.9379 24.386-5.7138l0.79266 1.7732s-14.441-2.6962-25.919 7.2586l0.74054-3.3181z" fill="#06a1d8"/>
  <path d="m139.16 518.13s13.368-9.0571 22.388-8.3032l0.89636 2.5741s-13.378-0.50227-23.285 5.7291z" fill="#06a1d8"/>
  <path d="m170.83 591.47 0.737 1.6412s12.408-4.7508 19.073-0.60311l-1.8514-3.5248s-11.849-3.5248-17.958 2.4866z" fill="#06a1d8"/>
 </g>
</svg>
