<?xml version="1.0" encoding="UTF-8"?>
<svg viewBox="0 0 746.03125 906.875" xmlns="http://www.w3.org/2000/svg">
 <defs>
  <linearGradient id="e" x1="419.38" x2="367.74" y1="804.91" y2="812.1" gradientUnits="userSpaceOnUse">
   <stop stop-color="#3e4241" offset="0"/>
   <stop stop-color="#96846e" offset="1"/>
  </linearGradient>
  <linearGradient id="g" x1="365.98" x2="380.09" y1="208.08" y2="225.49" gradientTransform="matrix(-1.705 0 0 1.7454 1026.6 -237.67)" gradientUnits="userSpaceOnUse">
   <stop stop-color="#4f515d" offset="0"/>
   <stop stop-color="#8e929e" offset="1"/>
  </linearGradient>
  <linearGradient id="h" x1="366.51" x2="345.71" y1="106.72" y2="140.54" gradientUnits="userSpaceOnUse">
   <stop stop-color="#5e656d" offset="0"/>
   <stop stop-color="#8e929e" offset="1"/>
  </linearGradient>
  <linearGradient id="i" x1="525.41" x2="411.55" y1="765.97" y2="776.12" gradientUnits="userSpaceOnUse">
   <stop stop-color="#40413c" offset="0"/>
   <stop stop-color="#6a5e50" offset="1"/>
  </linearGradient>
  <linearGradient id="j" x1="239.7" x2="353.56" y1="804.91" y2="744.38" gradientUnits="userSpaceOnUse">
   <stop stop-color="#a08b78" offset="0"/>
   <stop stop-color="#796a5d" offset="1"/>
  </linearGradient>
  <linearGradient id="f" x1="389.54" x2="381.07" y1="666.07" y2="148.83" gradientUnits="userSpaceOnUse">
   <stop stop-color="#808080" offset="0"/>
   <stop stop-color="#8e929e" offset="1"/>
  </linearGradient>
  <linearGradient id="d" x1="381.43" x2="382.86" y1="623.08" y2="660.26" gradientTransform="matrix(1.6761 0 0 2.8001 -165.8 -917.68)" gradientUnits="userSpaceOnUse">
   <stop stop-color="#2d3e12" offset="0"/>
   <stop stop-color="#536914" offset="1"/>
  </linearGradient>
  <linearGradient id="c" x1="1009.1" x2="621.24" y1="203.83" y2="631.13" gradientTransform="matrix(1.676 0 0 1.7548 -1012.3 -252.48)" gradientUnits="userSpaceOnUse">
   <stop stop-color="#7499c5" offset="0"/>
   <stop stop-color="#cbdae1" offset="1"/>
  </linearGradient>
  <linearGradient id="b" x1="320.84" x2="309.16" y1="627.02" y2="609.03" gradientUnits="userSpaceOnUse">
   <stop stop-color="#1d210d" offset="0"/>
   <stop stop-color="#508000" offset="1"/>
  </linearGradient>
  <linearGradient id="a" x1="320.84" x2="309.16" y1="627.02" y2="609.03" gradientUnits="userSpaceOnUse">
   <stop stop-color="#14160d" offset="0"/>
   <stop stop-color="#508000" offset="1"/>
  </linearGradient>
 </defs>
 <g transform="translate(.40625 -1.8438)">
  <path d="m0.14022 2.3905h744.94v905.78h-744.94z" fill="url(#c)" stroke="#000" stroke-width="1.1078"/>
  <path d="m0.55484 820.05 229.92-9.0381 514.21 16.501 0.10529 80.676h-744.17z" fill="url(#d)"/>
  <path d="m370.04 81.753-0.10056 17.555 46.338 33.24 4.5812-11.23z" fill="#64757f"/>
  <path d="m370.02 81.729-0.031 17.536-50.373 28.103-2.8797-13.669z" fill="#e6e6e6"/>
  <path d="m369.56 67.903 0.3393 14.064 36.304 28.127 8.8203-6.0834z" fill="#72838a"/>
  <path d="m369.72 67.589 0.39926 14.466-41.755 24.671-8.2394-8.3084z" fill="#a8b0b3"/>
  <path d="m352.95 77.959s-0.0265-11.455 2.0899-15.053 2.5396-11.852 2.7513-14.18 4.8676-8.8888 5.7142-9.947 1.9047-6.3491 1.9047-6.3491l0.63491-4.4444s4.2327 11.428 4.8677 12.91 3.5978 7.8306 4.4444 11.64 0.21164 7.4073 0.84654 9.7353 4.656 14.815 4.656 14.815l-11.64-9.5237z" fill="#ffd42a"/>
  <path d="m360.55 68.832s-1.4815-5.2909-1.0582-9.1004 3.3862-9.312 4.2327-11.005 0.63492-3.8095 0.84655-5.5026 1.6931-4.0211 1.6931-4.0211l1.2698-2.9629s0 3.5978 0.63491 6.1375-0.42327 5.5026 0 7.1957 2.1164 3.5978 2.1164 3.5978l0.63492 2.7513-1.9047 0.42327-4.0211 7.4073z" fill="#a80"/>
  <path d="m358.72 74.44s3.132-10.234 4.9955-12.742c2.6016-3.5017 5.8554-8.705 5.8554-8.705s2.1912 2.9288 3.0378 5.6801 6.5078 16.957 6.5078 16.957l-9.603-7.8306z" fill="#d4aa00"/>
  <path d="m416.04 132.31s-21.849 5.3874-25.141 10.176c-3.0568 4.4463 16.462 567.47 16.462 567.47s-26.338-5.0881-28.134-5.0881-11.972 0.59861-11.972 0.59861l2.6937-606.08z" fill="url(#f)"/>
  <path d="m319.97 126.92s23.309 13.363 23.309 16.655 0.0363 1.9016 0.0363 1.9016l-26.937 563.88 50.582-3.2923 2.993-606.98z" fill="#e6e6e6"/>
  <path d="m113.14 735.49c2.5396 0 12.698 16.084 12.698 16.084l252.27-16.084 1.6931-22.857z" fill="#b7a69c"/>
  <path d="m379.8 712.63 227.3 34.709-11.852 16.084-217.14-27.936z" fill="#5b625b"/>
  <path d="m116.51 727.62-2.9417 7.8669 266.24-22.434 227.31 34.435-3.3981-6.0755-223.07-36.825-263.43 22.759z" fill="#fff"/>
  <path d="m378.01 735.44s-4.2856 37.619-5.3968 47.671c-0.69906 6.3247-3.8095 34.92-3.8095 34.92l-56.296-1.6931-7.1956-21.164-22.434 1.6931 5.9259 20.317-48.677-1.6931s-36.402-40.634-52.486-47.407-36.402-16.508-44.444-16.084-17.248-0.42331-17.248-0.42331z" fill="url(#j)"/>
  <path d="m377.9 735.28 217.16 28.148s-26.055-0.84653-34.097 2.1164-46.983 20.74-60.105 33.439-22.857 23.28-22.857 23.28l-109.63-2.9629z" fill="url(#i)"/>
  <path d="m320.92 126.58 49.05-27.483c0.0271 0.82804 0.20265 9.0506 0.11106 14.411-0.10687 6.2553 0.0697 21.133 0.0697 21.133-8.3667 2.4017-17.801 5.6899-26.867 9.4355 0 0-0.2-1.8391-3.3702-4.257-6.1105-4.6605-20.27-12.456-20.27-12.456z" fill="url(#h)"/>
  <path d="m416.28 132.49-46.347-33.392s0.0464 7.9566 0.0708 13.38c0.0282 6.2608 0.0631 21.929 0.0631 21.929s18.448 7.5209 20.58 8.4559c3.9087-3.2525 3.8015-2.7047 5.5881-4.0066 8.8136-3.9928 11.367-3.4638 20.045-6.3677z" fill="url(#g)"/>
  <g transform="matrix(.83729 0 0 .83729 100.28 -65.747)">
   <path d="m19.887 950.38 314.16-27.779 267.69 43.184s-0.12627 4.672-4.1669 4.1669-6.566-4.2931-6.566-4.2931-2.0203 2.0203-5.5558 2.0203-6.9448-3.1567-6.9448-3.1567-1.7678 1.1364-4.1669 0.75761-6.1872-2.7779-6.1872-2.7779-3.1567 1.389-6.3135 1.1364-7.4499-3.0305-7.4499-3.0305-1.2866 1.728-5.9346 1.1364c-6.9448-0.88388-7.0711-3.6618-7.0711-3.6618s-1.0102 2.2728-7.0711 1.6415c-5.1721-0.53877-5.8084-3.9143-5.8084-3.9143s-1.0102 2.3991-6.3135 1.7678-7.9549-3.7881-7.9549-3.7881-3.9143 1.7678-6.4397 1.6415-6.8185-3.5355-6.8185-3.5355-1.1364 2.3991-5.6821 1.894-8.3338-3.7881-8.3338-3.7881-4.2932 2.0203-8.3338 1.2627-8.0812-3.6618-8.0812-3.6618-3.4093 2.3991-7.955 1.2627-7.7024-3.7881-7.7024-3.7881-2.7779 3.0305-7.5761 2.0203-7.0711-4.2931-7.0711-4.2931-3.7881 2.5254-7.0711 1.894-8.3338-3.6618-8.3338-3.6618-3.7881 2.2728-8.5863 1.1364-7.955-4.5457-7.955-4.5457-3.1567 3.1567-8.8388 2.1466-9.2176-4.5457-9.2176-4.5457-2.7779 3.0305-8.46 2.1466-10.48-5.177-10.48-5.177-3.0305 1.6415-6.566 1.5152-10.48-3.9143-10.48-3.9143 0.12626 1.0102-5.5558 0.88389-15.152-5.5558-15.152-5.5558-2.6516 2.0203-3.9143 2.9042-3.7326 2.6021-9.9752 2.9042c-7.8287 0.37881-10.607-3.9143-10.607-3.9143s-4.0406 5.177-10.228 5.3033c-5.0513 0.10309-9.9752-2.9042-9.9752-2.9042s-5.6821 4.1669-10.228 4.2932-9.5964-2.7779-9.5964-2.7779-1.5804 3.6334-9.849 4.1669c-7.8287 0.50508-8.7126-2.7779-8.7126-2.7779s-2.9042 5.177-10.985 5.177c-6.2691 0-9.2176-3.0305-9.2176-3.0305s-4.4138 3.548-8.9651 3.6618c-5.0508 0.12627-8.0812-1.5152-8.7126-1.5152s-2.4082 2.9329-8.3338 3.5355c-7.4499 0.75761-10.354-2.0203-10.354-2.0203s-0.37881 3.4093-8.46 3.6618c-7.2643 0.227-8.7126-2.3991-8.7126-2.3991s-1e-5 2.7779-7.4499 3.4093c-6.5474 0.55487-9.4702-2.0203-9.4702-2.0203s-2.1466 4.1669-7.4499 4.0406-8.46-1.894-8.46-1.894-3.1567 3.5355-8.8388 3.9143c-5.5392 0.36929-10.102-2.0203-10.102-2.0203s-2.3991 4.0406-8.46 3.0305-7.3236-1.894-7.3236-1.894-1.6415 3.7881-8.2075 3.5355-8.2075-1.6415-8.2075-1.6415-1.2627 3.9143-6.8185 3.283-6.9448-1.894-6.9448-1.894-2.7779 3.0305-8.46 2.9042-8.5863-1.389-8.5863-1.389 0 3.0304-6.4397 2.1466-5.8084-1.6415-5.8084-1.6415-0.63134 4.0406-8.46 3.0305-6.1872-2.2728-6.1872-2.2728-0.25254 4.4194-7.8287 3.5355-7.7024-2.6517-7.7024-2.6517z" fill="#fff"/>
   <path d="m19.861 947.24 315.04-27.244 266.9 43.721s-0.12627 4.672-4.1669 4.1669-6.566-4.2931-6.566-4.2931-2.0203 2.0203-5.5558 2.0203-6.9448-3.1567-6.9448-3.1567-1.7678 1.1364-4.1669 0.75761-6.1872-2.7779-6.1872-2.7779-3.1567 1.389-6.3135 1.1364-7.4499-3.0305-7.4499-3.0305-1.2866 1.728-5.9346 1.1364c-6.9448-0.88388-7.0711-3.6618-7.0711-3.6618s-1.0102 2.2728-7.0711 1.6415c-5.1721-0.53877-5.8084-3.9143-5.8084-3.9143s-1.0102 2.3991-6.3135 1.7678-7.9549-3.7881-7.9549-3.7881-3.9143 1.7678-6.4397 1.6415-6.8185-3.5355-6.8185-3.5355-1.1364 2.3991-5.6821 1.894-8.3338-3.7881-8.3338-3.7881-4.2932 2.0203-8.3338 1.2627-8.0812-3.6618-8.0812-3.6618-3.4093 2.3991-7.955 1.2627-7.7024-3.7881-7.7024-3.7881-2.7779 3.0305-7.5761 2.0203-7.0711-4.2931-7.0711-4.2931-3.7881 2.5254-7.0711 1.894-8.3338-3.6618-8.3338-3.6618-3.7881 2.2728-8.5863 1.1364-7.955-4.5457-7.955-4.5457-3.1567 3.1567-8.8388 2.1466-9.2176-4.5457-9.2176-4.5457-2.7779 3.0305-8.46 2.1466-10.48-5.177-10.48-5.177-3.0305 1.6415-6.566 1.5152-10.48-3.9143-10.48-3.9143 0.12626 1.0102-5.5558 0.88389-15.152-5.5558-15.152-5.5558-2.6516 2.0203-3.9143 2.9042-3.7326 2.6021-9.9752 2.9042c-7.8287 0.37881-10.607-3.9143-10.607-3.9143s-4.0406 5.177-10.228 5.3033c-5.0513 0.10309-9.9752-2.9042-9.9752-2.9042s-5.6821 4.1669-10.228 4.2932-9.5964-2.7779-9.5964-2.7779-1.5804 3.6334-9.849 4.1669c-7.8287 0.50508-8.7126-2.7779-8.7126-2.7779s-2.9042 5.177-10.985 5.177c-6.2691 0-9.2176-3.0305-9.2176-3.0305s-4.4138 3.548-8.9651 3.6618c-5.0508 0.12627-8.0812-1.5152-8.7126-1.5152s-2.4082 2.9329-8.3338 3.5355c-7.4499 0.75761-10.354-2.0203-10.354-2.0203s-0.37881 3.4093-8.46 3.6618c-7.2643 0.227-8.7126-2.3991-8.7126-2.3991s-1e-5 2.7779-7.4499 3.4093c-6.5474 0.55487-9.4702-2.0203-9.4702-2.0203s-2.1466 4.1669-7.4499 4.0406-8.46-1.894-8.46-1.894-3.1567 3.5355-8.8388 3.9143c-5.5392 0.36929-10.102-2.0203-10.102-2.0203s-2.3991 4.0406-8.46 3.0305-7.3236-1.894-7.3236-1.894-1.6415 3.7881-8.2075 3.5355-8.2075-1.6415-8.2075-1.6415-1.2627 3.9143-6.8185 3.283-6.9448-1.894-6.9448-1.894-2.7779 3.0305-8.46 2.9042-8.5863-1.389-8.5863-1.389-1e-6 3.0304-6.4397 2.1466-5.8084-1.6415-5.8084-1.6415-0.63135 4.0406-8.46 3.0305-6.1872-2.2728-6.1872-2.2728-0.25254 4.4194-7.8287 3.5355-7.7024-2.6517-7.7024-2.6517z" fill="#a00"/>
  </g>
  <path d="m364.99 791.15-0.68783 8.4655h93.385l-0.21164-7.8306z" fill="#585856"/>
  <path d="m364.83 791.15-10.212 11.852 4.2327 2.328 5.4496-5.82z" fill="#ccc"/>
  <path d="m358.69 805.33s2.6984 1.4815 3.5449 4.656-0.21163 8.4655-0.21163 8.4655l66.031 2.9629s-1.2698-14.603 3.3862-17.566 7.8306-4.2328 7.8306-4.2328h-74.92z" fill="url(#e)"/>
  <path d="m281.06 796.16 28.134-3.2923s9.2783 23.345 7.1832 23.345-29.631 0.2993-29.631 0.2993z" fill="#4e4b43"/>
  <path transform="matrix(1.6761 0 0 1.6761 -165.8 -227.52)" d="m324.64 622.72c0 4.7339-5.2766 8.5714-11.786 8.5714s-11.786-3.8376-11.786-8.5714 5.2766-8.5714 11.786-8.5714 11.786 3.8376 11.786 8.5714z" fill="url(#b)"/>
  <path transform="matrix(2.7236 0 0 2.7236 -375.83 -881.65)" d="m324.64 622.72c0 4.7339-5.2766 8.5714-11.786 8.5714s-11.786-3.8376-11.786-8.5714 5.2766-8.5714 11.786-8.5714 11.786 3.8376 11.786 8.5714z" fill="url(#a)"/>
 </g>
</svg>
